<svg width="257" height="227" viewBox="0 0 257 227" fill="none" xmlns="http://www.w3.org/2000/svg">
<path d="M86.2165 138.026H149.683V117.383H86.2165V138.026Z" fill="#C7C7C7"/>
<path d="M149.683 117.387V138.03H248.614V136.016H246.481V119.402H248.614V117.387H149.683Z" fill="#A6A6A6"/>
<path d="M152.282 135.885H246.592V119.528L152.282 119.528V135.885Z" fill="white"/>
<path d="M152.278 135.885C175.787 135.818 223.09 135.735 246.592 135.707L246.414 135.885V119.528C232.106 120.093 190.604 119.457 175.878 119.642L152.298 119.587C152.365 119.236 152.298 135.96 152.298 135.885H152.278ZM152.278 135.885C152.278 135.83 152.223 119.524 152.223 119.472C152.223 119.421 175.843 119.421 175.858 119.413L246.592 119.33H246.789V119.528L246.769 135.885V136.063H246.592C223.086 136.039 175.779 135.956 152.278 135.885Z" fill="#DBDBDB"/>
<path d="M212.743 132.268C219.955 132.363 227.166 132.428 234.377 132.465L246.592 132.497V132.043L234.377 132.074C227.166 132.101 219.955 132.165 212.743 132.268Z" fill="#DBDBDB"/>
<path d="M152.278 128.402V128.82L168.023 128.864L190.845 128.804C198.056 128.77 205.268 128.706 212.479 128.611C205.268 128.516 198.056 128.452 190.845 128.417L168.023 128.358L152.278 128.402Z" fill="#DBDBDB"/>
<path d="M152.278 122.269V122.774L174.788 122.715C182.004 122.681 189.216 122.616 196.421 122.521C189.21 122.427 181.999 122.362 174.788 122.328L152.278 122.269Z" fill="#DBDBDB"/>
<path d="M152.278 132.311V132.73H158.324C165.535 132.698 172.748 132.634 179.961 132.536C172.745 132.447 165.533 132.382 158.324 132.343L152.278 132.311Z" fill="#DBDBDB"/>
<path d="M212.021 125.262C219.235 125.352 226.447 125.416 233.658 125.456L246.592 125.491V125.033L233.658 125.069C226.442 125.1 219.229 125.165 212.021 125.262Z" fill="#DBDBDB"/>
<path d="M240.316 126.94C235.354 126.914 230.387 126.894 225.416 126.881H209.702H194.392C189.424 126.881 184.457 126.901 179.491 126.94C184.459 126.967 189.426 126.986 194.392 127H209.702H225.416C230.384 126.986 235.351 126.967 240.316 126.94Z" fill="#DBDBDB"/>
<path d="M234.1 102.045H170.634V117.387H234.1V102.045Z" fill="#EBEBEB"/>
<path d="M170.63 117.387V102.045H71.6992V103.542H73.8318V115.891H71.6992V117.387H170.63Z" fill="#DBDBDB"/>
<path d="M168.035 103.636H73.7253V115.796H168.035V103.636Z" fill="white"/>
<path d="M168.035 103.636C144.526 103.708 97.2228 103.791 73.7253 103.818L73.9069 103.636V115.796C72.659 115.251 121.147 115.831 120.866 115.658C132.611 115.658 156.282 115.713 168.023 115.753C167.956 116.013 168.023 103.585 168.023 103.636H168.035ZM168.035 103.636L168.079 115.796V115.839H168.035C156.271 115.879 132.639 115.93 120.878 115.934L73.7253 115.993H73.5278V115.796V103.636V103.455H73.7095C97.2149 103.482 144.522 103.565 168.019 103.636H168.035Z" fill="#DBDBDB"/>
<path d="M107.573 106.326C100.362 106.255 93.1497 106.206 85.9359 106.18L73.7212 106.156V106.492L85.9359 106.472C93.1392 106.454 100.352 106.405 107.573 106.326Z" fill="#DBDBDB"/>
<path d="M168.035 109.209V108.897L152.294 108.865L129.471 108.909C122.26 108.935 115.048 108.982 107.834 109.051C115.045 109.122 122.258 109.171 129.471 109.197L152.294 109.24L168.035 109.209Z" fill="#DBDBDB"/>
<path d="M168.035 113.758V113.363L145.525 113.407C138.311 113.433 131.099 113.482 123.887 113.553C131.099 113.619 138.311 113.666 145.525 113.695L168.035 113.758Z" fill="#DBDBDB"/>
<path d="M168.035 106.294V105.982H161.989C154.778 106.006 147.567 106.055 140.355 106.128C147.567 106.197 154.778 106.244 161.989 106.27L168.035 106.294Z" fill="#DBDBDB"/>
<path d="M108.296 111.535C101.082 111.469 93.8685 111.42 86.6547 111.389L73.7212 111.365V111.705L86.6547 111.677C93.8711 111.653 101.085 111.606 108.296 111.535Z" fill="#DBDBDB"/>
<path d="M79.9966 110.287C84.9646 110.308 89.9313 110.322 94.8967 110.33H110.614H125.921C130.889 110.33 135.856 110.316 140.821 110.287C135.856 110.263 130.889 110.249 125.921 110.243H110.614H94.8967C89.9287 110.251 84.962 110.266 79.9966 110.287Z" fill="#DBDBDB"/>
<path d="M111.313 71.1665H23.2471V138.03H111.313V71.1665Z" fill="#EBEBEB"/>
<path d="M144.782 71.1665H111.313V138.03H144.782V71.1665Z" fill="#DBDBDB"/>
<path d="M23.2471 104.339H111.313L42.5387 106.073L23.2471 104.339Z" fill="#DBDBDB"/>
<path d="M111.313 129.89H23.2471L92.0256 131.624L111.313 129.89Z" fill="#DBDBDB"/>
<path d="M23.2471 85.5059H79.0328L29.4433 86.9197L23.2471 85.5059Z" fill="#DBDBDB"/>
<path d="M111.313 119.97H55.5315L105.117 121.384L111.313 119.97Z" fill="#DBDBDB"/>
<path d="M118.706 75.325H62.9243L112.514 76.7427L118.706 75.325Z" fill="#DBDBDB"/>
<path d="M61.4355 79.5625H124.353L113.865 80.4116L61.4355 79.5625Z" fill="#DBDBDB"/>
<path d="M31.8088 111.562H94.7268L84.2378 112.412L31.8088 111.562Z" fill="#DBDBDB"/>
<path d="M70.4988 91.9194H111.313L118.607 94.1862L70.4988 91.9194Z" fill="#EBEBEB"/>
<path d="M80.3362 114.512H121.151L128.441 116.779L80.3362 114.512Z" fill="#EBEBEB"/>
<path d="M71.3596 124.468H112.174L119.468 126.735L71.3596 124.468Z" fill="#EBEBEB"/>
<path d="M12.0039 91.9194H52.8184L60.1086 94.1862L12.0039 91.9194Z" fill="#DBDBDB"/>
<path d="M64.3737 78.8555H23.5631L16.269 81.1183L64.3737 78.8555Z" fill="#EBEBEB"/>
<path d="M66.5813 118.837H25.7667L18.4727 121.103L66.5813 118.837Z" fill="#EBEBEB"/>
<path d="M64.3737 122.205H23.5631L16.269 124.468L64.3737 122.205Z" fill="#DBDBDB"/>
<path d="M111.313 114.512H144.087L151.381 116.779L111.313 114.512Z" fill="#DBDBDB"/>
<path d="M122.754 104.339H148.171L144.782 102.487L122.754 104.339Z" fill="#DBDBDB"/>
<path d="M4.11743 138.038C84.9645 137.797 175.653 137.793 256.5 138.038C175.653 138.282 84.9645 138.279 4.11743 138.038Z" fill="#263238"/>
<path d="M166.819 193.946L206.038 184.306L255.868 191.249L214.955 201.603L166.819 193.946Z" fill="#DBDBDB"/>
<path d="M166.819 193.946L206.026 184.262C206.026 184.262 255.892 191.158 255.892 191.154L256.393 191.221L255.892 191.351L214.955 201.658C214.955 201.658 166.834 193.942 166.819 193.946ZM166.819 193.946C166.819 193.946 215.03 201.556 214.943 201.552L255.844 191.154V191.347C255.844 191.347 205.974 184.345 206.049 184.349L166.819 193.946Z" fill="#DBDBDB"/>
<path d="M213.395 198.918C215.808 198.175 218.296 197.484 220.792 196.801C223.288 196.118 225.823 195.462 228.366 194.826C230.91 194.191 233.5 193.547 236.099 192.943L240.016 192.038C241.351 191.754 242.658 191.454 244.009 191.185C242.824 191.56 241.568 191.904 240.348 192.267L236.616 193.298C234.128 193.989 231.585 194.641 229.042 195.273C226.498 195.905 223.908 196.552 221.309 197.156C218.711 197.761 216.088 198.365 213.395 198.918Z" fill="#C7C7C7"/>
<path d="M219.875 194.996C222.64 194.049 225.625 193.235 228.651 192.461C231.676 191.687 234.795 190.956 238.121 190.388C235.356 191.339 232.375 192.149 229.346 192.923C226.317 193.697 223.181 194.412 219.875 194.996Z" fill="#C7C7C7"/>
<path d="M201.579 197.35C203.992 196.607 206.48 195.916 208.976 195.233C211.472 194.55 214.007 193.894 216.55 193.259C219.094 192.623 221.684 191.979 224.279 191.375L228.2 190.474C229.531 190.19 230.842 189.89 232.193 189.617C231.008 189.993 229.752 190.34 228.532 190.7L224.8 191.734C222.308 192.421 219.769 193.073 217.226 193.709C214.682 194.345 212.092 194.988 209.493 195.593C206.895 196.197 204.272 196.797 201.579 197.35Z" fill="#C7C7C7"/>
<path d="M200.071 195.451C204.174 194.163 208.482 193.018 212.842 191.896C217.202 190.775 221.649 189.732 226.269 188.812C222.166 190.099 217.858 191.245 213.502 192.366C209.146 193.488 204.707 194.53 200.071 195.451Z" fill="#C7C7C7"/>
<path d="M205.197 191.876C207.459 191.055 209.936 190.372 212.451 189.724C214.967 189.077 217.585 188.492 220.377 188.034C218.114 188.859 215.638 189.539 213.126 190.186C210.615 190.834 207.993 191.418 205.197 191.876Z" fill="#C7C7C7"/>
<path d="M4.74927 153.463L59.1686 143.164L111.681 158.506L57.5337 169.177L4.74927 153.463Z" fill="#EBEBEB"/>
<path d="M4.74927 153.463L59.1726 143.112C59.1726 143.112 111.696 158.415 111.696 158.411L112.091 158.526L111.696 158.605L57.5337 169.236C57.5139 169.236 4.76507 153.475 4.74927 153.475V153.463ZM4.74927 153.463L57.5495 169.125C57.4191 169.153 111.696 158.399 111.653 158.411V158.601L59.1568 143.199C59.2594 143.175 4.73347 153.467 4.74927 153.467V153.463Z" fill="#DBDBDB"/>
<path d="M56.7715 166.049C60.3257 165.227 63.9076 164.469 67.5053 163.707C71.103 162.945 74.7283 162.218 78.3576 161.499C81.9868 160.781 85.6359 160.078 89.3086 159.41L94.8176 158.407C96.6698 158.091 98.5062 157.76 100.374 157.459C98.6049 157.874 96.8199 158.249 95.027 158.644L89.6324 159.801C86.0387 160.567 82.4094 161.29 78.7841 162.009C75.1588 162.728 71.5058 163.431 67.8331 164.098C64.1604 164.765 60.4916 165.441 56.7715 166.049Z" fill="#DBDBDB"/>
<path d="M70.72 160.587C74.598 159.588 78.6183 158.743 82.6504 157.938C86.6825 157.132 90.7896 156.397 95.0073 155.801C91.1292 156.8 87.109 157.645 83.0769 158.451C79.0448 159.257 74.9377 159.991 70.72 160.587Z" fill="#DBDBDB"/>
<path d="M51.4045 161.677C54.5046 160.943 57.6482 160.267 60.7996 159.596C63.951 158.925 67.1182 158.289 70.3091 157.653C73.5001 157.017 76.6949 156.409 79.9214 155.829L84.7591 154.96C86.3901 154.687 88.0014 154.399 89.6442 154.142C88.1001 154.514 86.5283 154.853 84.9684 155.209L80.2492 156.224C77.0898 156.899 73.9305 157.531 70.7396 158.167C67.5487 158.802 64.3578 159.407 61.1313 159.991C57.9049 160.576 54.6823 161.156 51.4045 161.677Z" fill="#DBDBDB"/>
<path d="M48.8733 159.462C51.7364 158.775 54.643 158.143 57.5614 157.519C60.4799 156.895 63.418 156.303 66.3641 155.718C69.3102 155.134 72.2878 154.565 75.2655 154.032L79.7478 153.242C81.2603 152.993 82.757 152.729 84.2814 152.496C82.8558 152.847 81.3985 153.159 79.961 153.495L75.5933 154.439C72.6827 155.067 69.7367 155.655 66.7906 156.239C63.8445 156.824 60.8669 157.389 57.8892 157.926C54.9115 158.463 51.9141 158.968 48.8733 159.462Z" fill="#DBDBDB"/>
<path d="M35.3157 159.418C38.8699 158.597 42.4518 157.839 46.0495 157.073C49.6472 156.306 53.2725 155.588 56.9018 154.865C60.531 154.142 64.18 153.447 67.8488 152.776L73.3776 151.773C75.2298 151.461 77.0661 151.125 78.9341 150.825C77.1649 151.244 75.3798 151.615 73.5869 152.01L68.1963 153.155C64.6026 153.917 60.9733 154.64 57.348 155.363C53.7227 156.085 50.0697 156.78 46.397 157.452C42.7243 158.123 39.0358 158.806 35.3157 159.418Z" fill="#DBDBDB"/>
<path d="M34.8655 156.792C38.0011 156.05 41.1841 155.367 44.3711 154.687C47.5581 154.008 50.7766 153.364 53.9952 152.713C57.2137 152.061 60.452 151.453 63.7141 150.864L68.611 149.984C70.2578 149.707 71.8927 149.415 73.5514 149.158C71.9717 149.534 70.3921 149.873 68.8124 150.237L64.0379 151.259C60.8549 151.943 57.6363 152.582 54.4177 153.234C51.1992 153.886 47.9569 154.494 44.6949 155.082C41.4329 155.671 38.1788 156.263 34.8655 156.792Z" fill="#DBDBDB"/>
<path d="M24.5859 156.101C28.1402 155.28 31.7221 154.521 35.3237 153.759C38.9253 152.997 42.5467 152.255 46.1918 151.552C49.8368 150.849 53.4701 150.13 57.1428 149.463L62.6518 148.46C64.504 148.144 66.3443 147.812 68.2083 147.512C66.4391 147.926 64.6541 148.302 62.8651 148.696L57.4745 149.846C53.8808 150.608 50.2515 151.331 46.6222 152.049C42.9929 152.768 39.3439 153.471 35.6712 154.138C31.9985 154.806 28.31 155.493 24.5859 156.101Z" fill="#DBDBDB"/>
<path d="M37.0535 150.932C41.1803 149.881 45.4375 148.989 49.7263 148.136C54.0151 147.283 58.3592 146.497 62.8256 145.853C58.6988 146.904 54.4455 147.792 50.1528 148.649C45.8601 149.506 41.52 150.28 37.0535 150.932Z" fill="#DBDBDB"/>
<path d="M84.4907 206.042L153.648 192.955L220.373 212.452L151.567 226.009L84.4907 206.042Z" fill="#EBEBEB"/>
<path d="M84.4986 206.042L153.648 192.903C153.648 192.903 220.389 212.361 220.389 212.357L220.784 212.471L220.389 212.55L151.567 226.06C151.547 226.064 84.4986 206.042 84.4986 206.042ZM84.4986 206.042L151.591 225.962C151.468 225.962 220.393 212.349 220.361 212.357V212.546L153.633 193.002C153.735 192.97 84.4749 206.062 84.4907 206.034L84.4986 206.042Z" fill="#DBDBDB"/>
<path d="M150.595 222.036C155.101 220.993 159.679 220.018 164.24 219.058C168.801 218.099 173.418 217.171 178.026 216.255C182.635 215.338 187.275 214.45 191.943 213.597L198.945 212.325C201.314 211.93 203.633 211.5 206.006 211.121C203.759 211.65 201.476 212.136 199.214 212.645L192.362 214.098C187.797 215.07 183.184 215.986 178.575 216.902C173.967 217.818 169.326 218.707 164.658 219.556C159.991 220.405 155.327 221.262 150.595 222.036Z" fill="#DBDBDB"/>
<path d="M168.323 215.094C173.252 213.826 178.346 212.752 183.48 211.729C188.614 210.706 193.827 209.754 199.19 209.012C194.261 210.284 189.163 211.358 184.029 212.381C178.895 213.403 173.682 214.335 168.323 215.094Z" fill="#DBDBDB"/>
<path d="M143.779 216.48C147.728 215.548 151.713 214.687 155.718 213.838C159.722 212.989 163.762 212.175 167.802 211.37C171.842 210.564 175.914 209.79 180.013 209.047L186.166 207.942C188.235 207.598 190.285 207.231 192.374 206.907C190.399 207.381 188.424 207.811 186.45 208.262L180.455 209.549C176.455 210.406 172.411 211.212 168.371 212.017C164.331 212.823 160.255 213.597 156.156 214.335C152.057 215.074 147.942 215.836 143.779 216.48Z" fill="#DBDBDB"/>
<path d="M140.576 213.664C144.214 212.791 147.91 211.99 151.634 211.2C155.358 210.41 159.074 209.652 162.818 208.905C166.562 208.159 170.321 207.444 174.128 206.765L179.831 205.746C181.75 205.434 183.65 205.094 185.589 204.798C183.776 205.244 181.928 205.643 180.096 206.066L174.547 207.251C170.851 208.04 167.107 208.795 163.363 209.541C159.619 210.287 155.86 211.002 152.053 211.681C148.246 212.361 144.423 213.072 140.576 213.664Z" fill="#DBDBDB"/>
<path d="M123.331 213.609C127.837 212.566 132.414 211.591 136.975 210.631C141.536 209.671 146.153 208.743 150.761 207.827C155.37 206.911 160.01 206.022 164.666 205.173L171.668 203.902C174.038 203.507 176.356 203.076 178.729 202.717C176.482 203.246 174.2 203.732 171.937 204.241L165.085 205.694C160.52 206.666 155.907 207.582 151.298 208.498C146.69 209.415 142.05 210.303 137.382 211.152C132.714 212.001 128.062 212.835 123.331 213.609Z" fill="#DBDBDB"/>
<path d="M122.762 210.272C126.747 209.332 130.791 208.459 134.842 207.602C138.894 206.745 142.978 205.92 147.085 205.102C151.192 204.285 155.291 203.503 159.438 202.756L165.642 201.619C167.739 201.272 169.812 200.9 171.925 200.569C169.95 201.046 167.917 201.481 165.91 201.939L159.845 203.242C155.797 204.107 151.705 204.925 147.602 205.738C143.499 206.552 139.396 207.318 135.249 208.084C131.103 208.85 126.972 209.6 122.762 210.272Z" fill="#DBDBDB"/>
<path d="M109.698 209.395C114.204 208.352 118.781 207.377 123.342 206.417C127.904 205.458 132.52 204.53 137.129 203.613C141.737 202.697 146.378 201.809 151.046 200.956L158.047 199.684C160.417 199.289 162.735 198.859 165.105 198.479C162.862 199.009 160.579 199.494 158.316 200.004L151.464 201.457C146.899 202.429 142.286 203.345 137.678 204.261C133.069 205.177 128.429 206.066 123.761 206.915C119.093 207.764 114.429 208.621 109.698 209.395Z" fill="#DBDBDB"/>
<path d="M125.542 202.824C130.786 201.493 136.205 200.359 141.643 199.269C147.081 198.179 152.617 197.184 158.292 196.367C153.048 197.702 147.63 198.835 142.188 199.921C136.746 201.007 131.217 202.014 125.542 202.824Z" fill="#DBDBDB"/>
<path d="M253.483 172.873L125.443 208.25V182.75L253.483 147.374C260.268 159.884 253.483 172.873 253.483 172.873Z" fill="#37474F"/>
<path d="M0.5 190.561L125.443 208.25V201.785L11.9249 187.9L0.5 188.587V190.561Z" fill="#455A64"/>
<path d="M125.447 182.868C130.115 194.104 125.447 208.25 125.447 208.25L6.52637 189.467V167.427L125.447 182.868Z" fill="#455A64"/>
<path d="M122.505 182.489C127.051 193.681 122.88 205.734 122.88 205.734L6.52637 189.377V167.419L122.505 182.489Z" fill="white"/>
<path d="M122.505 182.489C122.659 182.924 123.105 184.148 123.259 184.579C124.183 187.653 124.652 190.846 124.649 194.056C124.667 198.017 124.09 201.957 122.94 205.746C122.995 205.92 6.53816 189.511 6.49867 189.554L6.32886 189.531V189.377V167.419V167.218L6.52632 167.246L64.5394 174.84L122.481 182.481L122.505 182.489ZM122.505 182.489C93.9764 178.655 34.277 171.578 6.70008 167.427L6.71982 189.385L6.55001 189.187C6.55001 189.231 123.145 205.612 122.813 205.714C123.403 203.834 123.844 201.91 124.132 199.96C125.013 194.128 124.673 188.006 122.501 182.489H122.505Z" fill="#DBDBDB"/>
<path d="M62.8257 176.937C82.2397 179.306 103.984 182.229 123.331 185.1C103.917 182.73 82.1726 179.804 62.8257 176.937Z" fill="#DBDBDB"/>
<path d="M6.52637 175.46C23.1681 177.435 41.6304 179.938 58.2129 182.43C41.5593 180.456 23.1049 177.96 6.52637 175.46Z" fill="#DBDBDB"/>
<path d="M9.29883 177.628C37.5787 181.182 69.2628 185.455 97.4677 189.519C69.1917 185.965 37.5076 181.692 9.29883 177.628Z" fill="#DBDBDB"/>
<path d="M24.5859 185.088C53.9203 188.717 86.7891 193.077 116.052 197.216C86.7219 193.59 53.8531 189.227 24.5859 185.088Z" fill="#DBDBDB"/>
<path d="M44.304 189.732C69.8866 192.931 98.5772 196.793 124.101 200.498C98.5061 197.307 69.8313 193.436 44.304 189.732Z" fill="#DBDBDB"/>
<path d="M21.312 189.689C54.09 193.867 90.8171 198.819 123.512 203.475C90.7342 199.301 54.0071 194.345 21.312 189.689Z" fill="#DBDBDB"/>
<path d="M125.447 182.868L253.483 147.373L124.101 141.513L0.5 164.434V166.645L125.447 182.868Z" fill="#455A64"/>
<path d="M128.729 178.967C144.613 174.153 160.926 169.805 177.225 166.049C161.345 170.867 145.031 175.207 128.729 178.967Z" fill="#37474F"/>
<path d="M98.0125 176.708C102.436 176.937 107.005 177.45 111.396 177.983C115.788 178.516 120.321 179.168 124.626 180.057C120.203 179.832 115.634 179.314 111.246 178.781C106.859 178.248 102.321 177.577 98.0125 176.708Z" fill="#37474F"/>
<path d="M3.93579 164.864C34.0086 168.095 64.3223 171.906 94.1937 176.222C64.0972 173 33.7874 169.181 3.93579 164.864Z" fill="#37474F"/>
<path d="M212.451 161.756C224.946 157.831 237.593 154.254 250.391 151.026C237.901 154.952 225.254 158.528 212.451 161.756Z" fill="#455A64"/>
<path d="M146.062 142.307C144.403 142.63 137.555 142.998 137.417 141.517C137.204 139.289 153.581 123.493 159.457 120.523C165.045 117.695 183.05 111.527 187.496 111.393L187.536 125.578C185.02 126.218 164.978 124.263 160.768 126.498C158.94 127.47 156.519 131.498 151.591 137.895C149.857 140.15 147.041 142.113 146.062 142.307Z" fill="#97001E"/>
<g opacity="0.3">
<path d="M146.062 142.307C144.403 142.63 137.555 142.998 137.417 141.517C137.204 139.289 153.581 123.493 159.457 120.523C165.045 117.695 183.05 111.527 187.496 111.393L187.536 125.578C185.02 126.218 164.978 124.263 160.768 126.498C158.94 127.47 156.519 131.498 151.591 137.895C149.857 140.15 147.041 142.113 146.062 142.307Z" fill="black"/>
</g>
<path d="M142.662 142.307C140.999 142.63 134.633 142.998 134.491 141.517C134.281 139.289 150.659 123.493 156.531 120.523C162.119 117.695 183.05 111.527 187.496 111.393L187.536 125.578C185.02 126.218 162.056 124.263 157.846 126.498C156.018 127.47 153.107 131.498 148.186 137.895C146.457 140.15 143.641 142.113 142.662 142.307Z" fill="#97001E"/>
<g opacity="0.2">
<path d="M142.662 142.307C140.999 142.63 134.633 142.998 134.491 141.517C134.281 139.289 150.659 123.493 156.531 120.523C162.119 117.695 183.05 111.527 187.496 111.393L187.536 125.578C185.02 126.218 162.056 124.263 157.846 126.498C156.018 127.47 153.107 131.498 148.186 137.895C146.457 140.15 143.641 142.113 142.662 142.307Z" fill="black"/>
</g>
<path d="M207.234 161.128C208.664 161.728 214.288 162.033 215.251 160.82C216.704 158.984 198.973 133.997 188.555 129.464C178.812 125.258 41.362 98.5617 38.5265 98.1194L38.4238 109.209C57.5733 112.202 179.081 131.561 186.596 134.835C191.497 136.963 197.741 148.195 202.227 155.955C204.04 159.106 205.576 160.433 207.234 161.128Z" fill="#97001E"/>
<g opacity="0.2">
<path d="M207.234 161.128C208.664 161.728 214.288 162.033 215.251 160.82C216.704 158.984 198.973 133.997 188.555 129.464C178.812 125.258 41.362 98.5617 38.5265 98.1194L38.4238 109.209C57.5733 112.202 179.081 131.561 186.596 134.835C191.497 136.963 197.741 148.195 202.227 155.955C204.04 159.106 205.576 160.433 207.234 161.128Z" fill="black"/>
</g>
<path d="M204.861 161.128C206.29 161.728 211.914 162.033 212.878 160.82C214.331 158.984 196.73 133.393 186.316 128.86C176.569 124.654 41.3619 98.5459 38.5264 98.1194L36.0503 109.209C55.1997 112.202 176.707 131.561 184.223 134.835C189.123 136.963 195.367 148.195 199.853 155.955C201.666 159.106 203.202 160.433 204.861 161.128Z" fill="#97001E"/>
<g opacity="0.1">
<path d="M204.861 161.128C206.29 161.728 211.914 162.033 212.878 160.82C214.331 158.984 196.73 133.393 186.316 128.86C176.569 124.654 41.3619 98.5459 38.5264 98.1194L36.0503 109.209C55.1997 112.202 176.707 131.561 184.223 134.835C189.123 136.963 195.367 148.195 199.853 155.955C201.666 159.106 203.202 160.433 204.861 161.128Z" fill="black"/>
</g>
<g opacity="0.1">
<path d="M65.1476 103.237L54.7455 112.182C46.0929 110.8 39.4544 109.754 36.0581 109.22L38.5303 98.1194C39.3004 98.2379 49.9117 100.272 65.1476 103.237Z" fill="black"/>
<path d="M91.7492 118.169L85.2884 117.107L79.2856 106.002L88.7992 107.882L91.7492 118.169Z" fill="black"/>
<path d="M128.137 115.788L120.831 122.987L114.342 121.897L119.531 114.034C122.414 114.616 125.283 115.201 128.137 115.788Z" fill="black"/>
<path d="M185.423 128.532L182.907 134.412C181.699 134.072 179.878 133.646 177.537 133.152L175.724 125.985C180.281 127.059 183.646 127.932 185.423 128.532Z" fill="black"/>
</g>
<path d="M64.6501 166.937C50.3305 166.246 39.4348 150.027 40.3589 130.787C40.7972 121.605 43.8341 113.067 48.9048 106.744C54.1454 100.213 60.9103 96.7847 68.0187 97.1441C75.1272 97.5034 81.5327 101.532 86.1177 108.541C90.5605 115.31 92.7641 124.105 92.3179 133.295C91.4412 151.5 80.2809 165.994 66.9446 166.914C66.1808 166.965 65.4148 166.973 64.6501 166.937ZM52.5499 109.675C48.0913 115.223 45.4019 122.806 45.007 131.016C44.2172 147.681 53.1146 161.705 64.8673 162.27C76.62 162.834 86.8365 149.735 87.646 133.046C88.041 124.836 86.1019 117.036 82.2041 111.077C78.4485 105.354 73.3264 102.057 67.7818 101.792C67.1913 101.757 66.5991 101.757 66.0086 101.792C61.0959 102.167 56.3727 104.904 52.5499 109.667V109.675ZM40.3786 133.231C39.6559 119.157 41.2316 116.953 40.5919 112.802C40.2878 110.828 37.5076 108.932 37.5076 108.932L39.9363 98.8264C39.9363 98.8264 47.5068 99.5649 49.2524 99.5925C52.3564 99.636 59.0581 97.3692 64.895 97.223C64.895 97.223 52.2063 102.926 48.1268 110.196C44.0474 117.466 40.3786 133.224 40.3786 133.224V133.231Z" fill="#97001E"/>
<path opacity="0.1" d="M64.6501 166.937C50.3305 166.246 39.4348 150.027 40.3589 130.787C40.7972 121.605 43.8341 113.067 48.9048 106.744C54.1454 100.213 60.9103 96.7847 68.0187 97.1441C75.1272 97.5034 81.5327 101.532 86.1177 108.541C90.5605 115.31 92.7641 124.105 92.3179 133.295C91.4412 151.5 80.2809 165.994 66.9446 166.914C66.1808 166.965 65.4148 166.973 64.6501 166.937ZM52.5499 109.675C48.0913 115.223 45.4019 122.806 45.007 131.016C44.2172 147.681 53.1146 161.705 64.8673 162.27C76.62 162.834 86.8365 149.735 87.646 133.046C88.041 124.836 86.1019 117.036 82.2041 111.077C78.4485 105.354 73.3264 102.057 67.7818 101.792C67.1913 101.757 66.5991 101.757 66.0086 101.792C61.0959 102.167 56.3727 104.904 52.5499 109.667V109.675ZM40.3786 133.231C39.6559 119.157 41.2316 116.953 40.5919 112.802C40.2878 110.828 37.5076 108.932 37.5076 108.932L39.9363 98.8264C39.9363 98.8264 47.5068 99.5649 49.2524 99.5925C52.3564 99.636 59.0581 97.3692 64.895 97.223C64.895 97.223 52.2063 102.926 48.1268 110.196C44.0474 117.466 40.3786 133.224 40.3786 133.224V133.231Z" fill="black"/>
<path d="M62.7031 166.937C48.3795 166.246 37.4838 150.027 38.4079 130.787C38.8463 121.605 41.8832 113.067 46.9539 106.744C52.1944 100.213 58.9593 96.7847 66.0678 97.1441C73.1763 97.5034 79.5818 101.532 84.1668 108.541C88.6096 115.31 90.8132 124.105 90.367 133.295C89.4902 151.5 78.3299 165.994 64.9936 166.914C64.2312 166.965 63.4665 166.973 62.7031 166.937ZM50.599 109.675C46.1404 115.231 43.4668 122.814 43.0719 131.024C42.2821 147.689 51.1755 161.713 62.9282 162.277C74.6809 162.842 84.8974 149.743 85.707 133.054C86.1019 124.843 84.1628 117.044 80.265 111.085C76.5133 105.362 71.3873 102.065 65.8427 101.8C65.2522 101.765 64.6601 101.765 64.0695 101.8C59.1489 102.167 54.4218 104.904 50.599 109.667V109.675ZM38.4277 133.231C37.705 119.157 39.2807 116.953 38.6409 112.802C38.3368 110.828 35.5566 108.932 35.5566 108.932L38.0959 97.6693C38.0959 97.6693 45.7928 99.0318 47.5344 99.0554C50.6385 99.1028 57.1072 97.3692 62.9361 97.2388C62.9361 97.2388 50.2475 102.941 46.168 110.212C42.0885 117.482 38.4277 133.224 38.4277 133.224V133.231Z" fill="#97001E"/>
<path d="M45.6862 102.823C45.5954 103.522 44.2961 103.925 42.7836 103.723C41.271 103.522 40.1258 102.791 40.2206 102.096C40.3154 101.401 41.6107 100.994 43.1232 101.196C44.6357 101.397 45.7968 102.124 45.6862 102.823Z" fill="#A6A6A6"/>
<path d="M40.884 102.12C41.0065 101.784 42.3215 101.405 43.759 101.792L40.884 102.12Z" fill="white"/>
<path d="M37.5035 109.023C40.2363 110.555 41.4053 112.814 41.0972 115.942C40.7932 121.368 40.181 126.743 40.1731 132.169C40.1358 134.877 40.3101 137.584 40.6944 140.265C38.9449 133.654 39.4662 126.684 40.0823 119.951L40.4772 115.907C40.9037 112.882 39.948 110.812 37.4956 109.023H37.5035Z" fill="white"/>
<path d="M51.7759 99.707C55.5671 98.6249 59.5044 97.7324 63.4693 97.9101C59.5202 98.2616 55.6855 99.1462 51.7759 99.707Z" fill="white"/>
<path opacity="0.1" d="M51.772 109.955C47.4635 115.484 44.8807 123.019 44.4937 131.186C43.7236 147.772 52.3328 161.705 63.6905 162.27C75.0483 162.834 84.9251 149.802 85.7071 133.224C86.102 125.061 84.2182 117.301 80.4507 111.377C76.8215 105.682 71.8692 102.404 66.5063 102.14C65.9355 102.104 65.3631 102.104 64.7924 102.14C60.0336 102.495 55.4684 105.212 51.772 109.955Z" fill="#EBEBEB"/>
<g opacity="0.2">
<path d="M73.5672 104.367L44.4619 134.313C44.4343 133.279 44.4619 132.24 44.4975 131.182C44.6352 128.092 45.1093 125.026 45.9113 122.039L65.2621 102.14C65.6571 102.14 66.0954 102.14 66.514 102.14C69.0141 102.282 71.4388 103.048 73.5672 104.367Z" fill="white"/>
<path d="M83.7086 118.292L49.813 153.167C49.1897 152.2 48.6252 151.196 48.1228 150.161L82.3659 114.927C82.8768 116.022 83.3251 117.146 83.7086 118.292Z" fill="white"/>
<path d="M85.0278 139.127C84.6138 141.377 84.0088 143.588 83.2191 145.734L67.4422 161.965C66.2104 162.231 64.949 162.333 63.6905 162.269C63.3351 162.25 62.9796 162.222 62.6282 162.175L85.0278 139.127Z" fill="white"/>
<path d="M85.0908 123.659L52.767 156.914C52.613 156.764 52.4669 156.606 52.3247 156.445L84.9408 122.877C85 123.137 85.0435 123.402 85.0908 123.659Z" fill="white"/>
</g>
<path d="M109.268 134.156L112.427 130.724C107.348 126.024 95.3942 119.461 86.4375 128.169L89.6916 131.518C97.7163 123.702 108.798 133.729 109.268 134.156Z" fill="#97001E"/>
<path d="M139.494 171.21C130.377 169.537 122.297 164.313 117.029 156.686C111.761 149.059 109.735 139.653 111.396 130.534C112.641 123.734 115.873 117.456 120.686 112.493C125.498 107.53 131.674 104.106 138.433 102.653C145.191 101.2 152.229 101.784 158.656 104.33C165.082 106.877 170.61 111.272 174.539 116.96C178.468 122.648 180.622 129.373 180.729 136.285C180.836 143.197 178.891 149.985 175.14 155.792C171.389 161.599 166 166.163 159.656 168.908C153.311 171.652 146.295 172.453 139.494 171.21ZM115.993 131.387C114.868 137.585 115.707 143.979 118.392 149.677C121.078 155.375 125.476 160.091 130.972 163.168C136.468 166.246 142.788 167.529 149.049 166.84C155.31 166.151 161.2 163.524 165.895 159.325C170.591 155.126 173.858 149.566 175.24 143.421C176.622 137.275 176.05 130.852 173.604 125.047C171.158 119.242 166.96 114.346 161.597 111.043C156.234 107.74 149.973 106.194 143.688 106.622C136.978 107.091 130.615 109.779 125.601 114.263C120.586 118.746 117.206 124.771 115.993 131.387Z" fill="#97001E"/>
<path d="M176.909 121.893C174.504 113.908 160.496 105.129 160.496 105.129C166.167 106.523 172.423 109.359 175.463 109.991C177.169 110.342 187.516 111.4 187.516 111.4L187.556 125.586C187.556 125.586 184.712 125.744 184.001 127.604C182.477 131.517 183.247 132.465 179.488 146.042C179.452 146.042 179.278 129.875 176.909 121.893Z" fill="#97001E"/>
<g opacity="0.1">
<path d="M139.494 171.21C130.377 169.537 122.297 164.313 117.029 156.686C111.761 149.059 109.735 139.653 111.396 130.534C112.641 123.734 115.873 117.456 120.686 112.493C125.498 107.53 131.674 104.106 138.433 102.653C145.191 101.2 152.229 101.784 158.656 104.33C165.082 106.877 170.61 111.272 174.539 116.96C178.468 122.648 180.622 129.373 180.729 136.285C180.836 143.197 178.891 149.985 175.14 155.792C171.389 161.599 166 166.163 159.656 168.908C153.311 171.652 146.295 172.453 139.494 171.21ZM115.993 131.387C114.868 137.585 115.707 143.979 118.392 149.677C121.078 155.375 125.476 160.091 130.972 163.168C136.468 166.246 142.788 167.529 149.049 166.84C155.31 166.151 161.2 163.524 165.895 159.325C170.591 155.126 173.858 149.566 175.24 143.421C176.622 137.275 176.05 130.852 173.604 125.047C171.158 119.242 166.96 114.346 161.597 111.043C156.234 107.74 149.973 106.194 143.688 106.622C136.978 107.091 130.615 109.779 125.601 114.263C120.586 118.746 117.206 124.771 115.993 131.387Z" fill="black"/>
<path d="M176.909 121.893C174.504 113.908 160.496 105.129 160.496 105.129C166.167 106.523 172.423 109.359 175.463 109.991C177.169 110.342 187.516 111.4 187.516 111.4L187.556 125.586C187.556 125.586 184.712 125.744 184.001 127.604C182.477 131.517 183.247 132.465 179.488 146.042C179.452 146.042 179.278 129.875 176.909 121.893Z" fill="black"/>
</g>
<path d="M136.386 170.701C127.277 169.027 119.203 163.808 113.935 156.189C108.668 148.571 106.637 139.174 108.288 130.06C109.524 123.253 112.752 116.965 117.564 111.992C122.375 107.02 128.553 103.586 135.316 102.127C142.079 100.667 149.124 101.246 155.557 103.791C161.991 106.335 167.526 110.732 171.46 116.423C175.395 122.114 177.553 128.845 177.661 135.763C177.769 142.681 175.822 149.476 172.067 155.287C168.312 161.099 162.917 165.666 156.566 168.41C150.215 171.154 143.192 171.953 136.386 170.705V170.701ZM112.885 130.897C111.755 137.1 112.591 143.501 115.276 149.205C117.961 154.909 122.361 159.632 127.862 162.714C133.362 165.795 139.687 167.082 145.954 166.393C152.221 165.704 158.116 163.075 162.816 158.873C167.516 154.67 170.785 149.105 172.168 142.953C173.55 136.802 172.976 130.373 170.527 124.563C168.077 118.754 163.873 113.855 158.504 110.552C153.134 107.248 146.866 105.704 140.576 106.136C133.868 106.606 127.505 109.294 122.492 113.777C117.479 118.259 114.099 124.283 112.885 130.897Z" fill="#97001E"/>
<path d="M173.781 121.404C171.376 113.419 157.368 104.64 157.368 104.64C163.039 106.034 169.295 108.869 172.336 109.501C174.042 109.853 184.389 110.911 184.389 110.911L184.428 123.9C184.428 123.9 181.585 124.761 180.874 126.617C179.345 130.53 180.116 131.976 176.356 145.573C176.344 145.541 176.186 129.385 173.781 121.404Z" fill="#97001E"/>
<path d="M179.957 116.744C179.863 117.443 178.563 117.845 177.055 117.644C175.546 117.443 174.393 116.716 174.488 116.017C174.583 115.318 175.882 114.915 177.39 115.117C178.899 115.318 180.068 116.049 179.957 116.744Z" fill="#A6A6A6"/>
<path d="M175.151 116.045C175.274 115.709 176.589 115.326 178.026 115.717L175.151 116.045Z" fill="white"/>
<path d="M126.687 107.183C129.682 104.902 133.349 103.681 137.113 103.711C133.559 104.754 130.139 105.884 126.687 107.183Z" fill="white"/>
<path d="M111.898 124.61C113.667 117.545 119.575 110.729 126.079 107.55C119.99 111.894 114.883 117.723 111.898 124.61Z" fill="white"/>
<path opacity="0.1" d="M114.327 130.898C111.404 147.314 122.059 163.111 138.085 166.108C154.11 169.106 169.52 158.182 172.442 141.77C175.365 125.357 164.706 109.552 148.68 106.559C146.27 106.105 143.812 105.963 141.366 106.136C128.204 107.064 116.799 117.016 114.327 130.898Z" fill="#EBEBEB"/>
<g opacity="0.2">
<path d="M172.896 137.729L144.743 166.558C142.513 166.661 140.278 166.505 138.085 166.092C137.135 165.916 136.195 165.691 135.269 165.417L171.775 128.022C172.667 131.177 173.046 134.455 172.896 137.729Z" fill="white"/>
<path d="M147.172 106.318L114.09 140.217C113.698 137.117 113.778 133.974 114.326 130.897C114.461 130.131 114.631 129.369 114.82 128.623L135.838 107.072C137.646 106.58 139.497 106.267 141.366 106.136C143.303 105.997 145.248 106.058 147.172 106.318Z" fill="white"/>
<path d="M168.098 119.788L127.228 161.649C126.295 161.028 125.399 160.352 124.547 159.624L166.128 117.04C166.837 117.917 167.495 118.835 168.098 119.788Z" fill="white"/>
<path d="M155.311 108.636L116.364 148.522C115.875 147.388 115.455 146.225 115.108 145.039L151.911 107.333C153.07 107.696 154.206 108.131 155.311 108.636Z" fill="white"/>
<path d="M172.517 141.351C172.497 141.489 172.47 141.631 172.446 141.769C172.407 142.014 172.359 142.259 172.308 142.496L149.403 165.97C149.036 166.049 148.66 166.12 148.281 166.183L172.517 141.351Z" fill="white"/>
<path d="M163.802 114.473L122.051 157.25C121.901 157.092 121.755 156.93 121.613 156.768L163.336 114.019L163.802 114.473Z" fill="white"/>
</g>
<path d="M78.7571 54.9129C78.3742 54.7516 78.0452 54.4846 77.8086 54.1432C77.5719 53.8018 77.4373 53.4 77.4205 52.9849L76.9474 42.0086C76.9307 41.6676 76.9936 41.3273 77.1312 41.0148C77.2688 40.7022 77.4772 40.426 77.74 40.208C78.0028 39.9899 78.3127 39.8361 78.6453 39.7585C78.9778 39.681 79.3238 39.682 79.656 39.7613C80.5718 39.9589 81.5184 39.9675 82.4377 39.7865C83.357 39.6055 84.2296 39.2387 85.0022 38.7086C85.7135 38.2584 86.325 37.6671 86.799 36.9714C87.273 36.2757 87.5994 35.4902 87.7581 34.6635C87.8652 33.8264 87.8031 32.9762 87.5756 32.1635C87.348 31.3508 86.9596 30.5921 86.4334 29.9323C85.879 29.1816 85.1821 28.5476 84.3825 28.0666C83.5828 27.5856 82.6961 27.267 81.7732 27.1291C79.912 27.0256 78.0704 27.5532 76.5464 28.6265C75.0223 29.6997 73.905 31.2559 73.3753 33.0431C73.1986 33.5846 72.8199 34.037 72.3179 34.3062C71.8159 34.5754 71.2294 34.6406 70.6806 34.4881C70.1318 34.3357 69.663 33.9774 69.3717 33.4879C69.0805 32.9983 68.9894 32.4153 69.1173 31.8603C69.922 29.0493 71.67 26.6011 74.0675 24.9274C76.465 23.2537 79.3657 22.4565 82.2818 22.67C83.7995 22.8722 85.2612 23.3774 86.5799 24.1556C87.8986 24.9338 89.0474 25.9691 89.9581 27.2001C90.844 28.3409 91.492 29.6479 91.8638 31.0436C92.2356 32.4394 92.3236 33.8955 92.1226 35.3258C91.8538 36.7541 91.2953 38.1123 90.4816 39.3165C89.6679 40.5208 88.6163 41.5456 87.3914 42.328C85.6169 43.5227 83.5442 44.1985 81.4065 44.2796L81.7732 52.7484C81.7869 53.1205 81.7065 53.49 81.5393 53.8227C81.3722 54.1554 81.1238 54.4406 80.8171 54.6517C80.5104 54.8629 80.1554 54.9932 79.785 55.0305C79.4145 55.0679 79.0406 55.0112 78.6979 54.8656L78.7571 54.9129Z" fill="#97001E"/>
<path d="M81.9983 59.4074C82.0232 59.7646 81.9416 60.1212 81.7638 60.432C81.586 60.7428 81.32 60.9939 80.9995 61.1534C80.6789 61.313 80.3182 61.3739 79.9631 61.3284C79.6079 61.2829 79.2742 61.1331 79.0043 60.8979C78.7343 60.6627 78.5401 60.3527 78.4464 60.0071C78.3527 59.6616 78.3636 59.2959 78.4777 58.9566C78.5918 58.6172 78.804 58.3193 79.0875 58.1006C79.371 57.8818 79.7131 57.7521 80.0703 57.7279C80.3074 57.7102 80.5458 57.7397 80.7714 57.8148C80.9971 57.8899 81.2056 58.0089 81.3849 58.1652C81.5642 58.3214 81.7108 58.5116 81.816 58.7248C81.9213 58.9381 81.9833 59.1701 81.9983 59.4074Z" fill="#97001E"/>
<path d="M40.7542 39.4302C40.805 39.1962 40.8406 38.9591 40.8607 38.7205C40.8607 38.2001 40.9908 37.5377 41.0854 36.6033C41.2017 35.4561 41.3954 34.318 41.665 33.1968C41.8187 32.5345 41.9015 31.8012 42.1381 31.056C42.3746 30.3108 42.6112 29.5065 42.8714 28.6904C44.2408 24.6468 46.2364 20.8431 48.7854 17.4184C52.1259 12.9837 56.3612 9.3005 61.2165 6.60766C63.9801 5.04951 66.9233 3.83409 69.981 2.98832C73.281 2.11357 76.68 1.66832 80.0939 1.66359C81.8922 1.63471 83.6903 1.72956 85.4756 1.94746C86.3864 2.04208 87.2853 2.27864 88.196 2.43241C89.117 2.59016 90.026 2.81148 90.9164 3.09477C94.6446 4.13661 98.1908 5.74419 101.431 7.86142C108.637 12.5349 114.126 19.4269 117.068 27.4958C118.652 31.818 119.454 36.3881 119.434 40.9915C119.482 45.7337 118.644 50.4434 116.962 54.8774L116.429 56.2258L116.358 56.4032L116.429 56.5807C119.398 63.4054 122.343 70.1118 125.123 76.6053L125.62 76.0376L107.878 69.2365L107.665 69.1537L107.487 69.3193C102.794 73.8669 97.0484 77.1826 90.7627 78.9709C85.3917 80.4495 79.7683 80.7724 74.2635 79.9181C68.7586 79.0638 63.4975 77.0519 58.8273 74.015C55.0022 71.5066 51.6306 68.367 48.8564 64.7301C44.8359 59.4215 42.231 53.178 41.2865 46.5861C41.1446 45.4033 41.0262 44.4097 40.9198 43.5108C40.8133 42.6119 40.9198 41.8785 40.8607 41.2517C40.8015 40.6248 40.8607 40.2108 40.8607 39.8678C40.9196 39.8588 40.9731 39.8279 41.0102 39.7813C41.0474 39.7346 41.0656 39.6756 41.0611 39.6161C41.0566 39.5566 41.0298 39.501 40.986 39.4605C40.9423 39.4199 40.8848 39.3974 40.8252 39.3974C40.7655 39.3974 40.7081 39.4199 40.6643 39.4605C40.6206 39.501 40.5938 39.5566 40.5893 39.6161C40.5848 39.6756 40.603 39.7346 40.6401 39.7813C40.6773 39.8279 40.7307 39.8588 40.7897 39.8678C40.7897 40.2108 40.7897 40.6721 40.7897 41.2517C40.7897 41.8312 40.7897 42.6355 40.7897 43.5345C40.7897 44.4334 40.9908 45.4624 41.109 46.6334C41.4981 49.4783 42.1758 52.2762 43.1316 54.9839C44.4856 58.5596 46.3071 61.9402 48.5488 65.0376C51.3342 68.7393 54.7301 71.9393 58.5907 74.5C63.3185 77.6127 68.6541 79.6844 74.2437 80.5776C79.8332 81.4707 85.5487 81.165 91.0111 79.6806C97.3724 77.8739 103.19 74.5263 107.949 69.9344L107.558 70.0172L125.3 76.8537L126.187 77.1967L125.797 76.286C122.982 69.7924 120.072 63.0978 117.115 56.2613V56.6043L117.659 55.2204C119.385 50.6897 120.244 45.8749 120.191 41.0269C120.228 36.3258 119.427 31.6556 117.825 27.2356C114.819 19.0059 109.209 11.9829 101.846 7.23455C98.5233 5.06792 94.884 3.43184 91.0584 2.38509C90.1535 2.09868 89.2284 1.88121 88.2907 1.73456C87.3681 1.56897 86.4573 1.33241 85.5347 1.24961C83.7261 1.02507 81.9045 0.922328 80.0821 0.942088C76.6136 0.95677 73.162 1.426 69.8154 2.33778C66.7172 3.21763 63.7351 4.46445 60.9327 6.05175C56.0288 8.81066 51.7673 12.5803 48.4305 17.1109C45.8892 20.5923 43.9207 24.4575 42.5994 28.5603C42.351 29.4119 42.1144 30.228 41.9015 30.9259C41.7135 31.6389 41.5634 32.3614 41.4521 33.0904C41.1984 34.2193 41.0323 35.366 40.9553 36.5205C40.8843 37.4312 40.837 38.1291 40.8015 38.6495C40.7518 38.9066 40.7359 39.169 40.7542 39.4302Z" fill="#263238"/>
</svg>
