<svg width="64" height="65" viewBox="0 0 64 65" fill="none" xmlns="http://www.w3.org/2000/svg">
<g id="hint-svgrepo-com 1">
<g id="SVGRepo_iconCarrier">
<path id="Vector" d="M62.1104 31.3461V33.5336C62.1104 34.3668 61.7329 35.2001 60.977 35.8547C52.2177 43.4436 43.4551 51.0294 34.6963 58.6184C33.958 59.2582 33.083 59.5872 32.043 59.5872V57.3997C33.0832 57.3997 33.958 57.0707 34.6963 56.4309C43.4552 48.8419 52.2173 41.2558 60.977 33.6673C61.7329 33.0126 62.1104 32.1796 62.1104 31.3461Z" fill="#E2AC47"/>
<path id="Vector_2" d="M1.88965 33.5229V33.3042V33.1948V32.9761V32.7573V32.6479V32.4292V32.2104V32.1011V31.8823V31.6636V31.5542V31.3354C1.88965 32.2546 2.30846 33.1675 3.07946 33.8366C11.7325 41.3406 20.395 48.8364 29.0521 56.3379C29.8647 57.0416 30.8483 57.367 32.0429 57.4V59.5875C30.8486 59.5545 29.8647 59.2291 29.0521 58.5254C20.395 51.0239 11.7325 43.5281 3.07946 36.0241C2.3084 35.3551 1.88965 34.4421 1.88965 33.5229Z" fill="#E2AC47"/>
<path id="Vector_3" d="M31.9239 5.28757C32.9403 5.28757 33.958 5.62269 34.733 6.29363C43.4798 13.8679 52.2268 21.4421 60.9717 29.0178C62.4867 30.3299 62.4901 32.3561 60.9766 33.6675C52.2173 41.2563 43.4548 48.8424 34.6961 56.4311C33.9577 57.071 33.0828 57.4 32.0429 57.4C30.8486 57.367 29.8646 57.0416 29.052 56.3379C20.395 48.8364 11.7325 41.3406 3.07947 33.8366C1.85565 32.7749 1.51947 31.0985 2.33603 29.7584C2.58097 29.3561 2.87784 29.0191 3.24009 28.7054C11.8719 21.2334 20.5013 13.7595 29.1315 6.28544C29.9 5.6205 30.9113 5.28757 31.9239 5.28757Z" fill="#F4DF4B"/>
<path id="Vector_4" d="M25.7387 37.3761V38.4261C25.7387 38.18 25.6529 37.9983 25.4379 37.8376C24.6536 37.2505 23.8636 36.6673 23.0986 36.0613C21.1186 34.4903 19.7073 32.6173 19.284 30.2888C19.1644 29.6303 19.1045 28.9831 19.1045 28.348V27.2979C19.1045 27.9329 19.1644 28.5803 19.284 29.2388C19.7073 31.5673 21.1186 33.4404 23.0986 35.0111C23.8635 35.6173 24.6536 36.2005 25.4379 36.7876C25.6529 36.9484 25.7387 37.1298 25.7387 37.3761Z" fill="#E7BA4A"/>
<path id="Vector_5" d="M25.7387 37.3761V38.4261C25.7387 38.18 25.6529 37.9983 25.4379 37.8376C24.6536 37.2505 23.8636 36.6673 23.0986 36.0613C21.1186 34.4903 19.7073 32.6173 19.284 30.2888C19.1644 29.6303 19.1045 28.9831 19.1045 28.348V27.2979C19.1045 27.9329 19.1644 28.5803 19.284 29.2388C19.7073 31.5673 21.1186 33.4404 23.0986 35.0111C23.8635 35.6173 24.6536 36.2005 25.4379 36.7876C25.6529 36.9484 25.7387 37.1298 25.7387 37.3761Z" fill="#E7BA4A"/>
<path id="Vector_6" d="M44.8948 27.5168V28.5668C44.8948 31.6596 43.3589 34.3061 40.3976 36.5157C39.779 36.9768 39.1641 37.4409 38.5415 37.8978C38.3334 38.0506 38.2549 38.2273 38.2549 38.4641V37.414C38.2549 37.1773 38.3334 37.0008 38.5415 36.8477C39.1641 36.3908 39.779 35.9268 40.3976 35.4657C43.3589 33.2561 44.8948 30.6096 44.8948 27.5168Z" fill="#E7BA4A"/>
<path id="Vector_7" d="M44.8953 27.5168V28.5668C44.8953 28.7517 44.8898 28.935 44.8789 29.1168V28.0668C44.8898 27.8849 44.8953 27.7016 44.8953 27.5168Z" fill="#E7BA4A"/>
<path id="Vector_8" d="M44.8785 28.0667V29.1167C44.7611 31.0628 44.017 32.8261 42.6748 34.4091V33.3591C44.0169 31.7761 44.7611 30.0128 44.8785 28.0667ZM42.6748 33.3591V34.4091C42.046 35.1508 41.2859 35.853 40.3977 36.5156C39.7791 36.9768 39.1641 37.4409 38.5416 37.8977C38.486 37.9384 38.4397 37.9809 38.4016 38.0259V36.9759C38.4397 36.9308 38.4861 36.8886 38.5416 36.8477C39.1641 36.3908 39.7791 35.9267 40.3977 35.4656C41.2859 34.8029 42.046 34.1008 42.6748 33.3591ZM38.4016 36.9759V38.0259C38.3092 38.1351 38.2654 38.2583 38.2567 38.4054V37.3553C38.2654 37.2083 38.3091 37.0851 38.4016 36.9759ZM38.2566 37.3554V38.4056C38.2553 38.4247 38.2549 38.4441 38.2549 38.4641V37.4141C38.2549 37.394 38.2554 37.3746 38.2566 37.3554Z" fill="#E7BA4A"/>
<path id="Vector_9" d="M36.1333 37.6503V38.7003C36.1336 38.9058 36.0347 38.9086 35.6602 38.9086V37.8586C36.0348 37.8586 36.1336 37.8558 36.1333 37.6503Z" fill="#E7BA4A"/>
<path id="Vector_10" d="M36.1332 37.6503V38.7003C36.1332 38.7114 36.1329 38.7219 36.1323 38.7319V37.6819C36.1329 37.6719 36.1332 37.6614 36.1332 37.6503ZM36.1323 37.6819V38.7319C36.1294 38.7804 36.119 38.8157 36.0977 38.8413V37.7913C36.119 37.7657 36.1294 37.7304 36.1323 37.6819Z" fill="#E7BA4A"/>
<path id="Vector_11" d="M36.098 37.7912V38.8413C36.09 38.8507 36.0805 38.859 36.07 38.8657V37.8156C36.0806 37.809 36.09 37.8007 36.098 37.7912ZM36.07 37.8156V38.8656C36.0597 38.8723 36.0487 38.8777 36.0372 38.8818V37.8317C36.0494 37.8271 36.0603 37.8218 36.07 37.8156ZM36.0372 37.8315V38.8816C36.0132 38.8899 35.9883 38.8956 35.9631 38.8985V37.8484C35.9883 37.8456 36.0132 37.8399 36.0372 37.8315ZM35.9631 37.8486V38.8986C35.8918 38.9082 35.7935 38.9086 35.6602 38.9086V37.8586C35.7934 37.8586 35.8917 37.8582 35.9631 37.8486Z" fill="#E7BA4A"/>
<path id="Vector_12" d="M27.873 38.6787V37.6286C27.873 37.8041 28.0047 37.8582 28.25 37.8618V38.9118C28.0048 38.9082 27.873 38.8541 27.873 38.6787Z" fill="#E7BA4A"/>
<path id="Vector_13" d="M28.25 37.8619V38.9119C28.0047 38.9082 27.873 38.8541 27.873 38.6788V37.6288C27.873 37.8041 28.0048 37.8582 28.25 37.8619Z" fill="#E7BA4A"/>
<path id="Vector_14" d="M30.9401 37.5284V38.5785C30.9414 38.8187 30.8569 38.9104 30.5938 38.9131V37.8631C30.8569 37.8603 30.9413 37.7687 30.9401 37.5284Z" fill="#E7BA4A"/>
<path id="Vector_15" d="M30.9401 37.5284V38.5785C30.9402 38.5977 30.9398 38.6157 30.9388 38.6328V37.5827C30.9398 37.5656 30.9402 37.5476 30.9401 37.5284ZM30.9387 37.5827V38.6328C30.9338 38.7156 30.9153 38.7776 30.8779 38.8218V37.7718C30.9154 37.7276 30.9338 37.6656 30.9387 37.5827Z" fill="#E7BA4A"/>
<path id="Vector_16" d="M30.8784 37.7719V38.8219C30.8654 38.8374 30.8501 38.8507 30.833 38.8616V37.8116C30.8505 37.8003 30.8656 37.7871 30.8784 37.7719Z" fill="#E7BA4A"/>
<path id="Vector_17" d="M30.8326 37.8114V38.8614C30.817 38.8713 30.8003 38.8794 30.783 38.8857V37.8356C30.8013 37.8289 30.8179 37.821 30.8326 37.8114ZM30.7829 37.8356V38.8857C30.7574 38.8949 30.7282 38.9019 30.695 38.9063V37.8563C30.7282 37.8519 30.7574 37.8451 30.7829 37.8356ZM30.695 37.8564V38.9064C30.6647 38.9105 30.6312 38.9127 30.5938 38.9131V37.863C30.6276 37.8629 30.6614 37.8607 30.695 37.8564Z" fill="#E7BA4A"/>
<path id="Vector_18" d="M30.5937 37.8631V38.9132C30.3855 38.9101 30.1773 38.9078 29.9691 38.9063C29.8034 38.9053 29.6376 38.9046 29.4718 38.9046C29.0645 38.9047 28.6573 38.9071 28.25 38.912V37.862C28.4665 37.8596 28.6828 37.8576 28.8993 37.8563C29.0699 37.8552 29.2406 37.8547 29.4718 37.8546C29.6376 37.8546 29.8035 37.8554 29.9691 37.8563C30.1658 37.8576 30.3624 37.8598 30.5937 37.8631Z" fill="#E7BA4A"/>
<path id="Vector_19" d="M30.5937 37.8631V38.9132C30.3855 38.9101 30.1773 38.9078 29.9691 38.9063C29.8034 38.9053 29.6376 38.9046 29.4718 38.9046C29.0645 38.9047 28.6573 38.9071 28.25 38.912V37.862C28.4665 37.8596 28.6828 37.8576 28.8993 37.8563C29.0699 37.8552 29.2406 37.8547 29.4718 37.8546C29.6376 37.8546 29.8035 37.8554 29.9691 37.8563C30.1658 37.8576 30.3624 37.8598 30.5937 37.8631Z" fill="#E7BA4A"/>
<path id="Vector_20" d="M35.5335 37.8588V38.9088L35.3317 38.9084C35.2196 38.9082 35.1074 38.9079 34.9952 38.9075C34.7992 38.9066 34.6032 38.9061 34.4072 38.9059C34.2097 38.9059 34.0799 38.9063 33.9501 38.9072C33.7853 38.9084 33.6207 38.9103 33.4561 38.9135V37.8635C33.6207 37.8603 33.7854 37.8582 33.9501 37.8572C34.0798 37.8563 34.2097 37.8559 34.4072 37.8559C34.4857 37.8559 34.564 37.856 34.6425 37.8563C34.7601 37.8566 34.8776 37.857 34.9952 37.8574C35.1074 37.8578 35.2194 37.8582 35.3317 37.8584L35.5335 37.8588Z" fill="#E7BA4A"/>
<path id="Vector_21" d="M35.5335 37.8588V38.9088L35.3317 38.9084C35.2196 38.9082 35.1074 38.9079 34.9952 38.9075C34.7992 38.9066 34.6032 38.9061 34.4072 38.9059C34.2097 38.9059 34.0799 38.9063 33.9501 38.9072C33.7853 38.9084 33.6207 38.9103 33.4561 38.9135V37.8635C33.6207 37.8603 33.7854 37.8582 33.9501 37.8572C34.0798 37.8563 34.2097 37.8559 34.4072 37.8559C34.4857 37.8559 34.564 37.856 34.6425 37.8563C34.7601 37.8566 34.8776 37.857 34.9952 37.8574C35.1074 37.8578 35.2194 37.8582 35.3317 37.8584L35.5335 37.8588Z" fill="#E7BA4A"/>
<path id="Vector_22" d="M32.0028 17.9721C34.8545 17.9774 37.6148 18.9852 39.6699 20.8623C39.7052 20.8947 39.7403 20.9272 39.7753 20.9599C41.7334 22.7988 42.7246 24.9248 42.732 27.3067C42.7333 27.7742 42.6968 28.2516 42.6223 28.7384C42.347 30.5356 41.3365 32.0349 39.8572 33.2882C39.0004 34.0145 38.0787 34.6838 37.1734 35.3663C36.5096 35.8675 36.1014 36.4484 36.102 37.2003C36.1022 37.2878 36.1077 37.3752 36.1183 37.4621C36.1274 37.5388 36.1333 37.6006 36.1334 37.6505C36.1337 37.856 36.0348 37.8588 35.6603 37.8588L35.5332 37.859L35.3314 37.8586C35.2193 37.8584 35.1071 37.8579 34.995 37.8576L34.6422 37.8565C34.5638 37.8562 34.4854 37.8561 34.407 37.8561C34.2095 37.8561 34.0796 37.8565 33.9498 37.8574C33.785 37.8586 33.6203 37.8604 33.4558 37.8637C33.1409 37.8583 33.0513 37.7682 33.0526 37.5172C33.0633 35.4166 33.055 33.3154 33.0665 31.2151C33.0678 31.0841 33.1535 30.9231 33.2611 30.8276C34.1968 29.9956 35.1442 29.174 36.0924 28.3529C36.347 28.1327 36.5274 27.8862 36.5274 27.5806C36.5274 27.5429 36.5247 27.5046 36.5188 27.4652C36.4318 26.9526 35.9791 26.6396 35.4842 26.6297C35.2565 26.6328 35.0693 26.6775 34.8939 26.7701C34.8645 26.7856 34.8357 26.8022 34.8072 26.8203C34.5463 26.9857 34.3295 27.2038 34.0965 27.4014C33.396 27.9934 32.6979 28.587 31.9987 29.1795C31.0353 28.3567 30.0833 27.5254 29.1025 26.7205C28.8789 26.5366 28.5683 26.3866 28.2703 26.3277C28.1381 26.3097 28.107 26.3082 28.0763 26.3079C27.685 26.3203 27.3815 26.515 27.2221 26.7827C27.1329 26.9324 27.0878 27.0888 27.0878 27.2437C27.0877 27.4854 27.1972 27.7238 27.4205 27.929C27.8924 28.3622 28.383 28.7801 28.8683 29.2025C29.4932 29.7464 30.1276 30.2832 30.7413 30.8366C30.847 30.932 30.9265 31.0946 30.9272 31.2266C30.9385 33.3272 30.9316 35.4282 30.9403 37.5287C30.9417 37.7689 30.8571 37.8605 30.594 37.8633C30.2201 37.8576 29.8461 37.8548 29.4722 37.8548C29.241 37.8549 29.0702 37.8555 28.8997 37.8565C28.6832 37.8578 28.4668 37.8597 28.2502 37.8622C27.9783 37.8582 27.846 37.7921 27.8779 37.5675C27.8998 37.4334 27.9092 37.3162 27.9091 37.2033C27.9082 36.283 27.2723 35.6346 26.475 35.0394C25.5841 34.3742 24.6819 33.7137 23.8591 32.9879C22.0973 31.4336 21.2527 29.5988 21.249 27.5481C21.2483 27.1224 21.2839 26.6875 21.3548 26.2439C21.8973 22.8531 23.9757 20.3619 27.5187 18.8735C27.5951 18.8414 27.6719 18.8101 27.7491 18.7797C29.1213 18.2374 30.5687 17.9742 32.0028 17.9721Z" fill="#F9F4BE"/>
<path id="Vector_23" d="M33.4559 37.8636V38.9136C33.141 38.9082 33.0514 38.8182 33.0527 38.5671V37.5171C33.0514 37.7681 33.141 37.8582 33.4559 37.8636Z" fill="#E7BA4A"/>
<path id="Vector_24" d="M33.4559 37.8636V38.9136C33.141 38.9082 33.0514 38.8182 33.0527 38.5671V37.5171C33.0514 37.7681 33.141 37.8582 33.4559 37.8636Z" fill="#E7BA4A"/>
<path id="Vector_25" d="M28.2727 40.7573C28.1582 40.7573 28.0766 40.7594 28.0186 40.7701V40.6473V40.5171V40.3821V40.2448V40.1075V39.9728V39.8429V39.7204C28.0767 39.7097 28.1582 39.7076 28.2727 39.7076V40.7573Z" fill="#E7BA4A"/>
<path id="Vector_26" d="M28.2723 39.7073V40.7573C28.1729 40.7573 28.0984 40.7588 28.0426 40.7663V39.7163C28.0984 39.7089 28.173 39.7073 28.2723 39.7073ZM28.0426 39.7163V40.7663C28.0154 40.77 27.9927 40.7751 27.9736 40.7818V39.7318C27.996 39.7242 28.0192 39.719 28.0426 39.7163Z" fill="#E7BA4A"/>
<path id="Vector_27" d="M27.9046 40.8366C27.8809 40.8786 27.877 40.9425 27.877 41.0392V39.9893C27.877 39.8104 27.8905 39.7441 28.0168 39.7203C28.0172 39.7203 28.0177 39.7202 28.0181 39.72V40.7696C27.9594 40.781 27.9248 40.8009 27.9046 40.8366V40.7142V40.5844V40.4496V40.3124V40.1753V40.0406V39.9108V39.7881V40.7142C27.9046 40.7509 27.914 40.8011 27.9046 40.8366Z" fill="#E7BA4A"/>
<path id="Vector_28" d="M28.0426 39.7162V40.7662C28.0154 40.77 27.9927 40.7751 27.9736 40.7818V39.7317C27.996 39.7242 28.0192 39.719 28.0426 39.7162Z" fill="#E7BA4A"/>
<path id="Vector_29" d="M27.9743 39.7317V40.7817C27.9626 40.7861 27.9522 40.7909 27.9431 40.7968V39.7468C27.9521 39.741 27.9626 39.736 27.9743 39.7317ZM27.943 39.7468V40.7968C27.9332 40.803 27.9245 40.8107 27.917 40.8195V39.7694C27.9243 39.7608 27.9329 39.7533 27.943 39.7468Z" fill="#E7BA4A"/>
<path id="Vector_30" d="M27.9165 39.7696V40.8196C27.8923 40.8486 27.8826 40.8908 27.879 40.9521V39.9021C27.8826 39.8406 27.8923 39.7986 27.9165 39.7696ZM27.879 39.9021V40.9521C27.8775 40.9779 27.877 41.0072 27.877 41.0401V39.9901C27.877 39.9571 27.8775 39.9279 27.879 39.9021Z" fill="#E7BA4A"/>
<path id="Vector_31" d="M28.2725 39.7072C28.3078 39.7072 28.3463 39.7074 28.3881 39.7077H28.5388C28.9235 39.7075 29.3086 39.7073 29.6933 39.7073C30.4631 39.7073 31.2325 39.7077 32.0024 39.7077H35.6061C36.1278 39.7077 36.1195 39.7077 36.1282 40.1741C36.1287 40.1897 36.1289 40.2053 36.1288 40.2209C36.1274 40.7016 35.9525 41.1153 35.5399 41.4536C35.2029 41.7308 34.8093 41.8792 34.3442 41.8792L32.9757 41.8805C32.5297 41.8809 32.0839 41.8814 31.6382 41.8814H31.58C30.9386 41.8814 30.2971 41.8803 29.6557 41.8781C28.6599 41.8742 27.872 41.1606 27.877 40.2903L27.8772 40.2697L27.8775 40.2452C27.8854 39.7403 27.811 39.7072 28.2725 39.7072Z" fill="#F2EA90"/>
<path id="Vector_32" d="M34.3445 41.8791V42.9291C33.8884 42.9294 33.432 42.93 32.976 42.9304C32.53 42.9309 32.0842 42.9314 31.6385 42.9314H31.6074V41.8813H31.6385C32.0844 41.8813 32.53 41.8809 32.976 41.8804C33.432 41.8799 33.8884 41.8794 34.3445 41.8791Z" fill="#E7BA4A"/>
<path id="Vector_33" d="M34.3445 41.8791V42.9291C33.8884 42.9294 33.432 42.93 32.976 42.9304C32.53 42.9309 32.0842 42.9314 31.6385 42.9314H31.6074V41.8813H31.6385C32.0844 41.8813 32.53 41.8809 32.976 41.8804C33.432 41.8799 33.8884 41.8794 34.3445 41.8791Z" fill="#E7BA4A"/>
<path id="Vector_34" d="M31.607 41.8814V42.9314H31.58C31.2754 42.9314 30.9707 42.9312 30.6662 42.9307C30.3294 42.9301 29.9925 42.9294 29.6557 42.9281C28.6599 42.9242 27.872 42.2106 27.877 41.3404V40.2903C27.872 41.1606 28.66 41.8744 29.6557 41.8781C30.2971 41.8803 30.9386 41.8814 31.58 41.8814H31.607Z" fill="#E7BA4A"/>
<path id="Vector_35" d="M31.607 41.8814V42.9314H31.58C31.2754 42.9314 30.9707 42.9312 30.6662 42.9307C30.3294 42.9301 29.9925 42.9294 29.6557 42.9281C28.6599 42.9242 27.872 42.2106 27.877 41.3404V40.2903C27.872 41.1606 28.66 41.8744 29.6557 41.8781C30.2971 41.8803 30.9386 41.8814 31.58 41.8814H31.607Z" fill="#E7BA4A"/>
<path id="Vector_36" d="M44.5787 25.0006C45.6006 29.1969 44.1332 32.6788 40.3981 35.4657C39.7794 35.9268 39.1645 36.391 38.5419 36.8477C38.3297 37.0036 38.2522 37.1844 38.2554 37.4281C38.2699 38.4458 38.3134 39.4665 38.2502 40.4814C38.1362 42.3337 36.6495 43.6432 34.5151 43.7201C33.7247 43.7482 32.9321 43.7621 32.1397 43.7621C31.2056 43.7621 30.2714 43.743 29.3395 43.7064C27.2794 43.6257 25.7403 42.1504 25.7327 40.3597C25.7289 39.3711 25.7227 38.383 25.7384 37.3949C25.7428 37.1389 25.6585 36.9524 25.4379 36.7876C24.6536 36.2005 23.8636 35.6173 23.0986 35.0112C21.1186 33.4403 19.7073 31.5673 19.284 29.2388C18.7012 26.0295 19.5354 23.09 21.8166 20.5088C24.1016 17.9221 27.159 16.4882 30.9093 16.174C31.041 16.1631 31.1676 16.1048 31.2967 16.0681H32.6966C32.8257 16.1047 32.9525 16.1631 33.084 16.174C38.7965 16.6436 43.3974 20.147 44.5787 25.0006ZM42.6225 28.7385C42.6971 28.2516 42.7336 27.7741 42.7321 27.3068C42.7249 24.9249 41.7335 22.7988 39.7756 20.9599C39.7404 20.9271 39.7056 20.8947 39.6701 20.8623C37.6151 18.9851 34.8547 17.9773 32.0433 17.9721C30.5686 17.9741 29.1219 18.2373 27.7493 18.7792C27.6722 18.8096 27.5954 18.8408 27.5189 18.8729C23.9759 20.3613 21.8976 22.8524 21.3549 26.2434C21.2839 26.6871 21.2486 27.1219 21.2492 27.5476C21.2529 29.5983 22.0974 31.4332 23.8593 32.9876C24.6821 33.7131 25.5843 34.3739 26.4752 35.0388C27.2726 35.6341 27.9085 36.2827 27.9094 37.2028C27.9092 37.3207 27.8995 37.4384 27.8801 37.5546C27.8462 37.7918 27.9786 37.8579 28.2087 37.8618C28.4671 37.8594 28.6836 37.8574 28.9001 37.8561C29.2567 37.8538 29.6133 37.8538 29.9699 37.8561C30.1666 37.8574 30.3631 37.8598 30.5597 37.8628C30.8575 37.8601 30.942 37.7684 30.9407 37.5283C30.9319 35.4279 30.9389 33.3268 30.9275 31.2263C30.9269 31.0943 30.8475 30.9316 30.7416 30.8362C30.1281 30.2829 29.4935 29.7462 28.8685 29.2022C28.3834 28.7798 27.8926 28.3618 27.4207 27.9286C27.1974 27.7235 27.0878 27.4851 27.088 27.2434C27.0881 27.0885 27.1333 26.9321 27.2222 26.7824C27.3817 26.5148 27.6853 26.3201 28.0363 26.3083C28.1071 26.3079 28.1383 26.3094 28.1695 26.3125C28.5685 26.3863 28.8791 26.5364 29.1029 26.7203C30.0837 27.525 31.0356 28.3565 31.999 29.1793C32.6982 28.5868 33.3962 27.9931 34.0968 27.4012C34.3299 27.2038 34.5466 26.9855 34.8074 26.8201C34.8359 26.8019 34.8649 26.7853 34.8941 26.7699C35.0624 26.6809 35.2493 26.6327 35.4397 26.6294C35.9795 26.6393 36.4321 26.9523 36.5154 27.4411C36.5247 27.5043 36.5276 27.5428 36.5276 27.5803C36.5276 27.886 36.3472 28.1326 36.0926 28.3526C35.1444 29.1738 34.1969 29.9953 33.2613 30.8274C33.1537 30.9229 33.0679 31.0839 33.0667 31.2148C33.0552 33.3153 33.0635 35.4164 33.0528 37.5169C33.0515 37.768 33.1411 37.8581 33.4012 37.8634C33.6206 37.8602 33.7853 37.8584 33.9499 37.8573C34.0796 37.8563 34.2095 37.8559 34.3393 37.8559C34.4855 37.8559 34.5637 37.8561 34.6422 37.8563L34.9948 37.8574C35.107 37.8578 35.2191 37.8582 35.3313 37.8586L35.466 37.8586C35.5755 37.8588 35.6178 37.8587 35.6602 37.8586C36.0349 37.8586 36.1337 37.8558 36.1334 37.6503C36.1332 37.6005 36.1274 37.5386 36.1182 37.462C36.1076 37.3752 36.1022 37.2878 36.1019 37.2003C36.1012 36.4483 36.5094 35.8674 37.1733 35.3664C38.0786 34.6838 39.0003 34.0144 39.857 33.2881C41.3366 32.0349 42.3472 30.5356 42.6225 28.7385ZM35.5401 41.4536C35.9527 41.1153 36.1275 40.7019 36.1289 40.2209C36.1291 40.2054 36.1289 40.1898 36.1284 40.1741C36.1196 39.7077 36.1278 39.7077 35.6062 39.7077H32.0027C31.233 39.7077 30.4632 39.7074 29.6936 39.7074C29.3087 39.7074 28.9239 39.7075 28.5391 39.7077H28.3884C28.3466 39.7075 28.3081 39.7073 28.2729 39.7073C27.8112 39.7073 27.8855 39.7403 27.8779 40.2451L27.8776 40.2698L27.8772 40.2902C27.8722 41.1605 28.6602 41.8744 29.656 41.878C29.9929 41.8794 30.3297 41.8801 30.6664 41.8806C30.9711 41.8811 31.2756 41.8813 31.5803 41.8813H31.6385C32.0844 41.8813 32.5301 41.8808 32.9759 41.8804C33.4321 41.8799 33.8883 41.8794 34.3444 41.8791C34.8092 41.8791 35.203 41.7308 35.5401 41.4536Z" fill="#EFD350"/>
<path id="Vector_37" d="M38.2838 39.2756V40.3256C38.2838 40.7279 38.2754 41.1301 38.2505 41.5312C38.1365 43.3836 36.6498 44.6931 34.5153 44.77C33.725 44.7981 32.9324 44.8119 32.14 44.8119C31.2058 44.8119 30.2717 44.7928 29.3398 44.7562C27.2797 44.6755 25.7406 43.2002 25.733 41.4096C25.7311 40.9079 25.7285 40.4062 25.7285 39.9048V38.8548C25.7285 39.3563 25.7311 39.8579 25.733 40.3596C25.7405 42.1502 27.2796 43.6255 29.3398 43.7062C30.2718 43.7428 31.2059 43.7619 32.14 43.7619C32.9324 43.7619 33.7247 43.7481 34.5153 43.72C36.6496 43.6431 38.1365 42.3334 38.2505 40.4813C38.2754 40.0801 38.2838 39.6779 38.2838 39.2756Z" fill="#E7BA4A"/>
<path id="Vector_38" d="M38.2834 39.2756V40.3256C38.2834 40.7168 38.2755 41.1076 38.2522 41.4976V40.4476C38.2755 40.0577 38.2834 39.6668 38.2834 39.2756ZM38.2521 40.4476V41.4976L38.25 41.5313C38.2043 42.2787 37.9347 42.9377 37.4893 43.463V42.413C37.9347 41.8876 38.2042 41.2287 38.25 40.4813L38.2521 40.4476ZM37.4893 42.413V43.463C37.2745 43.7165 37.0189 43.9386 36.7275 44.1248V43.0748C37.0189 42.8886 37.2746 42.6664 37.4893 42.413Z" fill="#E7BA4A"/>
<path id="Vector_39" d="M36.7279 43.0747V44.1247C36.4998 44.2704 36.2498 44.394 35.9805 44.4929V43.4429C36.2498 43.344 36.4997 43.2204 36.7279 43.0747Z" fill="#E7BA4A"/>
<path id="Vector_40" d="M35.9807 43.4429V44.4929C35.6853 44.6014 35.3668 44.6804 35.0285 44.7264V43.6764C35.3667 43.6304 35.6853 43.5515 35.9807 43.4429ZM35.0283 43.6764V44.7264C34.8582 44.7494 34.6869 44.7639 34.5153 44.77C33.725 44.7981 32.9324 44.8119 32.14 44.8119C31.2058 44.8119 30.2717 44.7928 29.3398 44.7562C27.2797 44.6755 25.7406 43.2002 25.733 41.4096C25.7311 40.9079 25.7285 40.4062 25.7285 39.9048V38.8548C25.7285 39.3563 25.7311 39.8579 25.733 40.3596C25.7405 42.1502 27.2796 43.6255 29.3398 43.7062C30.2718 43.7428 31.2059 43.7619 32.14 43.7619C32.9324 43.7619 33.7247 43.7481 34.5153 43.72C34.6869 43.7139 34.8582 43.6994 35.0283 43.6764Z" fill="#E7BA4A"/>
<path id="Vector_41" d="M38.4002 45.7534V46.8035C38.4002 46.8725 38.3927 46.9446 38.3775 47.019C38.2988 47.4037 37.9927 47.6678 37.5454 47.7353C37.4994 47.7424 37.4528 47.7528 37.4067 47.7528C35.4032 47.7538 33.3989 47.7571 31.3951 47.7571C29.7978 47.7571 28.2013 47.7549 26.6041 47.7479C25.9869 47.7452 25.5918 47.3469 25.5918 46.8492V45.7992C25.5918 46.2968 25.9869 46.6951 26.6041 46.6979C28.2014 46.7049 29.7979 46.7071 31.3951 46.7071C33.3989 46.7071 35.4032 46.7036 37.4067 46.7028C37.4527 46.7028 37.4992 46.6924 37.5454 46.6853C37.9925 46.6178 38.2989 46.3536 38.3775 45.969C38.3929 45.8945 38.4002 45.8224 38.4002 45.7534Z" fill="#E7BA4A"/>
<path id="Vector_42" d="M38.4001 45.7534V46.8035C38.4001 46.824 38.3994 46.8449 38.3981 46.8659V45.8159C38.3995 45.7948 38.4001 45.7739 38.4001 45.7534ZM38.3981 45.8159V46.8659C38.3949 46.9156 38.3881 46.9666 38.3774 47.019C38.3475 47.1648 38.285 47.2934 38.1944 47.4004V46.3504C38.2849 46.2433 38.3475 46.1148 38.3774 45.969C38.3881 45.9166 38.3949 45.8655 38.3981 45.8159ZM38.1944 46.3503V47.4003C38.137 47.4677 38.0698 47.5261 37.9951 47.5735V46.5235C38.0699 46.4761 38.137 46.4177 38.1944 46.3503Z" fill="#E7BA4A"/>
<path id="Vector_43" d="M37.9953 46.5234V47.5734C37.9319 47.6135 37.8645 47.6467 37.794 47.6725V46.6225C37.8645 46.5968 37.932 46.5636 37.9953 46.5234ZM37.794 46.6225V47.6725C37.7134 47.7016 37.6301 47.7227 37.5454 47.7353C37.5188 47.7393 37.492 47.7444 37.4655 47.7481V46.698C37.4922 46.6944 37.5189 46.6892 37.5454 46.6852C37.6302 46.6727 37.7135 46.6517 37.794 46.6225ZM37.4654 46.6982V47.7482C37.4459 47.7511 37.4263 47.7526 37.4066 47.7528C35.4032 47.7538 33.3989 47.7571 31.395 47.7571C29.7978 47.7571 28.2012 47.7549 26.6041 47.7479C25.9869 47.7452 25.5918 47.3469 25.5918 46.8492V45.7992C25.5918 46.2968 25.9869 46.6951 26.6041 46.6979C28.2014 46.7049 29.7979 46.7071 31.395 46.7071C33.3989 46.7071 35.4032 46.7036 37.4066 46.7028C37.4262 46.7027 37.4459 46.7009 37.4654 46.6982Z" fill="#E7BA4A"/>
<path id="Vector_44" d="M35.0224 44.8484C35.7532 44.8484 36.484 44.8496 37.2144 44.8531C38.0467 44.8571 38.511 45.3163 38.3774 45.969C38.2987 46.3536 37.9925 46.6176 37.5452 46.6853C37.4993 46.6923 37.4527 46.7028 37.4065 46.7028C35.4032 46.7037 33.3988 46.707 31.395 46.707C29.7977 46.707 28.2012 46.7049 26.604 46.6978C25.8802 46.6946 25.4619 46.1473 25.6281 45.5336C25.7385 45.1293 26.1101 44.8684 26.6562 44.8593C27.1821 44.8511 27.7079 44.8498 28.234 44.8498C28.3855 44.8498 28.5371 44.8499 28.6887 44.8501C28.9318 44.8506 29.175 44.8506 29.4181 44.8501C29.7057 44.8496 29.9932 44.8494 30.2807 44.8494C30.8555 44.8494 31.4304 44.8501 32.005 44.8501L32.4744 44.8503C32.8522 44.8503 33.2299 44.8498 33.6077 44.8494C34.0792 44.8489 34.5509 44.8484 35.0224 44.8484Z" fill="#EFD350"/>
</g>
</g>
</svg>
