<svg width="199" height="64" viewBox="0 0 199 64" fill="none" xmlns="http://www.w3.org/2000/svg">
<g clip-path="url(#clip0_173_1548)">
<path fill-rule="evenodd" clip-rule="evenodd" d="M71.0209 38.02C71.0209 37.0063 71.0002 36.0694 70.9534 35.2077C70.9053 34.3465 70.8319 33.5339 70.7241 32.7755C69.193 32.6642 68.1601 32.5526 67.6215 32.4493C67.0816 32.3427 66.8115 32.2088 66.8115 32.0431C66.8115 31.9587 66.8727 31.8834 67.0012 31.8204C67.1223 31.7624 67.2907 31.7316 67.5065 31.7316C67.6082 31.7316 67.856 31.7446 68.2546 31.7712C70.0085 31.9003 71.709 31.9684 73.3677 31.9684C74.9937 31.9684 76.6866 31.9003 78.4475 31.7712C78.8579 31.7446 79.1207 31.7316 79.2348 31.7316C79.4387 31.7316 79.5994 31.7624 79.7212 31.8204C79.8496 31.8834 79.9107 31.9587 79.9107 32.0431C79.9107 32.2088 79.6401 32.3427 79.1009 32.4493C78.5611 32.5526 77.5293 32.6642 75.9967 32.7755C75.8898 33.5258 75.8155 34.3329 75.7692 35.1948C75.7215 36.0563 75.7016 36.9977 75.7016 38.02V44.6611C75.7016 45.6925 75.7215 46.642 75.7692 47.5135C75.8155 48.3844 75.8898 49.192 75.9967 49.9325C77.7644 50.0792 78.8579 50.1992 79.2764 50.2846C79.7011 50.3734 79.9107 50.4907 79.9107 50.6424C79.9107 50.7363 79.8496 50.8111 79.7212 50.8699C79.5994 50.9283 79.4387 50.9539 79.2348 50.9539C79.1207 50.9539 78.8506 50.9409 78.4259 50.9139C76.6797 50.8024 74.9937 50.7445 73.3677 50.7445C71.709 50.7445 70.0153 50.8024 68.2752 50.9139C67.8633 50.9409 67.6082 50.9539 67.5065 50.9539C67.2907 50.9539 67.1223 50.9283 67.0012 50.8699C66.8727 50.8111 66.8115 50.7363 66.8115 50.6424C66.8115 50.481 67.0606 50.3561 67.5599 50.2581C68.0668 50.1641 69.1184 50.0575 70.7241 49.9455C70.8319 49.1783 70.9053 48.3558 70.9534 47.4866C71.0002 46.6166 71.0209 45.6748 71.0209 44.6611V38.02ZM84.3335 4.7612C82.5714 9.75579 75.246 16.9267 69.4404 23.3117C58.5108 37.3517 41.7795 55.4414 35.1782 57.8459C13.6884 64.3116 28.2985 40.152 25.6761 24.2104C13.9297 33.1741 -1.64829 41.0387 0.141355 28.7001C0.589197 25.6095 1.39088 21.9262 1.20141 18.9148C0.718092 11.2692 0.389927 11.6812 8.42484 13.4055C8.93836 16.7669 7.78225 21.7397 7.27433 23.4896C6.72854 25.3703 6.50704 27.8119 6.12497 29.9725C12.557 30.6055 17.723 20.1253 23.3769 16.2868C28.3733 12.075 28.6872 11.4959 36.3568 15.1704C36.6212 15.2968 36.8124 15.3779 36.9664 15.6388C37.1082 15.8792 37.0958 16.1111 37.0527 16.3789C34.9408 29.4094 29.1723 37.548 31.0439 50.5024C41.3677 50.2803 51.2859 28.1511 56.3471 20.6088C59.047 16.023 65.3361 9.29878 70.8199 3.91296C74.4458 0.351579 75.3265 -1.09113 80.7535 0.902979C82.4446 1.52427 83.8857 3.11746 84.3335 4.7612ZM92.1056 49.9455C92.5296 50.0937 92.9814 50.204 93.4682 50.2803C93.9531 50.3561 94.499 50.3923 95.087 50.3923C98.5409 50.3923 101.225 49.6199 103.147 48.0711C105.062 46.5225 106.019 44.3538 106.019 41.5545C106.019 38.6577 105.096 36.4033 103.241 34.7922C101.393 33.1821 98.7954 32.3751 95.4635 32.3751C94.8836 32.3751 94.317 32.4045 93.7568 32.4722C93.1965 32.5343 92.6444 32.6376 92.1056 32.7755C91.9963 33.5258 91.9219 34.3329 91.8753 35.1948C91.8277 36.0563 91.808 36.9977 91.808 38.02V44.6611C91.808 45.6925 91.8277 46.642 91.8753 47.5135C91.9219 48.3844 91.9963 49.1968 92.1056 49.9455ZM86.8294 49.9455C86.9384 49.1783 87.0127 48.3622 87.0595 47.4866C87.1067 46.6166 87.1269 45.6748 87.1269 44.6611V38.02C87.1269 37.0063 87.1067 36.0694 87.0595 35.2077C87.0127 34.3465 86.9384 33.5339 86.8294 32.7755C85.2987 32.6642 84.2673 32.5526 83.7285 32.4493C83.1893 32.3427 82.9183 32.2088 82.9183 32.0431C82.9183 31.9587 82.9788 31.8834 83.1072 31.8204C83.2283 31.7624 83.3967 31.7316 83.613 31.7316C83.7685 31.7316 84.3957 31.7712 85.4881 31.8473C86.581 31.9277 87.5926 31.9684 88.5295 31.9684C89.3321 31.9684 90.5602 31.9277 92.2123 31.8473C93.8653 31.7712 95.1193 31.7316 95.9772 31.7316C100.711 31.7316 104.435 32.5702 107.153 34.2486C109.87 35.9266 111.234 38.2115 111.234 41.1076C111.234 44.0899 109.797 46.4915 106.916 48.307C104.036 50.1245 100.246 51.0349 95.5451 51.0349C94.7823 51.0349 93.6026 50.982 92.0169 50.8743C90.4321 50.772 89.2182 50.7179 88.3749 50.7179C87.5454 50.7179 86.5948 50.759 85.5292 50.8348C84.4624 50.9138 83.8225 50.9539 83.613 50.9539C83.3967 50.9539 83.2283 50.9283 83.1072 50.8699C82.9788 50.8111 82.9183 50.7363 82.9183 50.6424C82.9183 50.481 83.1677 50.3561 83.667 50.2581C84.1728 50.1641 85.2256 50.0575 86.8294 49.9455ZM118.605 38.02C118.605 37.0063 118.585 36.0694 118.538 35.2077C118.49 34.3465 118.417 33.5339 118.309 32.7755C116.777 32.6642 115.745 32.5526 115.207 32.4493C114.666 32.3427 114.395 32.2088 114.395 32.0431C114.395 31.9587 114.457 31.8834 114.585 31.8204C114.707 31.7624 114.876 31.7316 115.091 31.7316C115.192 31.7316 115.442 31.7446 115.84 31.7712C117.594 31.9003 119.292 31.9684 120.953 31.9684C122.578 31.9684 124.271 31.9003 126.031 31.7712C126.443 31.7446 126.706 31.7316 126.82 31.7316C127.023 31.7316 127.184 31.7624 127.306 31.8204C127.434 31.8834 127.495 31.9587 127.495 32.0431C127.495 32.2088 127.226 32.3427 126.686 32.4493C126.146 32.5526 125.115 32.6642 123.583 32.7755C123.474 33.5258 123.401 34.3329 123.354 35.1948C123.306 36.0563 123.287 36.9977 123.287 38.02V44.6611C123.287 45.6925 123.306 46.642 123.354 47.5135C123.401 48.3844 123.474 49.192 123.583 49.9325C125.35 50.0792 126.443 50.1992 126.861 50.2846C127.286 50.3734 127.495 50.4907 127.495 50.6424C127.495 50.7363 127.434 50.8111 127.306 50.8699C127.184 50.9283 127.023 50.9539 126.82 50.9539C126.706 50.9539 126.436 50.9409 126.012 50.9139C124.265 50.8024 122.578 50.7445 120.953 50.7445C119.292 50.7445 117.601 50.8024 115.86 50.9139C115.45 50.9409 115.192 50.9539 115.091 50.9539C114.876 50.9539 114.707 50.9283 114.585 50.8699C114.457 50.8111 114.395 50.7363 114.395 50.6424C114.395 50.481 114.646 50.3561 115.144 50.2581C115.65 50.1641 116.704 50.0575 118.309 49.9455C118.417 49.1783 118.49 48.3558 118.538 47.4866C118.585 46.6166 118.605 45.6748 118.605 44.6611V38.02ZM136.964 44.0012H146.151L141.78 36.2073L136.964 44.0012ZM136.567 44.6659C135.892 46.0671 135.4 47.1736 135.076 47.9775C134.753 48.7853 134.543 49.4413 134.455 49.9455C136.074 50.0575 137.133 50.1641 137.632 50.2581C138.138 50.3561 138.387 50.481 138.387 50.6424C138.387 50.7363 138.334 50.8111 138.225 50.8699C138.124 50.9283 137.97 50.9539 137.773 50.9539C137.612 50.9539 136.964 50.9138 135.824 50.8348C134.684 50.759 133.626 50.7179 132.634 50.7179C131.609 50.7179 130.522 50.759 129.377 50.8348C128.23 50.9138 127.589 50.9539 127.462 50.9539C127.259 50.9539 127.104 50.9283 126.983 50.8699C126.869 50.8111 126.806 50.7363 126.806 50.6424C126.806 50.481 127.063 50.3561 127.569 50.2581C128.075 50.1641 129.147 50.0575 130.78 49.9455C131.623 49.0048 132.479 47.9723 133.349 46.8573C134.213 45.7365 135.109 44.5047 136.034 43.1615L139.845 37.6185C140.412 36.8104 140.944 35.9935 141.437 35.1715C141.928 34.3555 142.381 33.5567 142.791 32.7804C142.933 32.5033 143.083 32.1599 143.224 31.749C143.413 31.2182 143.649 30.9499 143.938 30.9499C144.162 30.9499 144.33 31.2041 144.452 31.7094C144.478 31.7801 144.491 31.83 144.491 31.8652C144.66 32.4678 145.031 33.3419 145.599 34.4893C146.165 35.6317 146.873 36.9397 147.73 38.4035L152.141 45.7905C152.417 46.2233 152.793 46.8081 153.274 47.5399C153.752 48.2714 154.287 49.0746 154.865 49.9455C156.618 50.084 157.699 50.1992 158.116 50.2846C158.528 50.3734 158.737 50.4907 158.737 50.6424C158.737 50.7363 158.676 50.8111 158.562 50.8699C158.441 50.9283 158.292 50.9539 158.103 50.9539C158.036 50.9539 157.361 50.9138 156.072 50.8348C154.777 50.759 153.503 50.7179 152.235 50.7179C150.562 50.7179 148.775 50.7811 146.879 50.9009C146.366 50.9369 146.043 50.9539 145.915 50.9539C145.713 50.9539 145.557 50.9283 145.436 50.8699C145.321 50.8111 145.26 50.7363 145.26 50.6424C145.26 50.481 145.511 50.3561 146.01 50.2581C146.515 50.1641 147.575 50.0575 149.192 49.9455C148.997 49.325 148.68 48.5801 148.242 47.7055C147.81 46.8303 147.25 45.8176 146.563 44.6659H136.567ZM168.145 49.9103C168.645 49.9954 169.151 50.0575 169.656 50.0975C170.162 50.1375 170.654 50.1555 171.134 50.1555C172.819 50.1555 174.472 50.0492 176.105 49.8296C177.73 49.6118 179.501 49.2932 180.966 48.8745L181.391 46.0419L181.784 46.2345C181.81 46.2475 181.763 46.7492 181.743 46.9146L181.219 52.9758L180.869 52.9358L180.894 51.2801C180.051 51.1155 178.708 50.9901 176.86 50.9009C175.019 50.8158 172.814 50.772 170.244 50.772H165.637C163.688 50.772 161.847 50.8247 160.104 50.9283C159.842 50.9466 159.688 50.9539 159.654 50.9539C159.438 50.9539 159.269 50.9283 159.148 50.8699C159.02 50.8111 158.96 50.7363 158.96 50.6424C158.96 50.4771 159.229 50.3431 159.769 50.2365C160.309 50.1338 161.34 50.0213 162.872 49.9103C162.979 49.1513 163.055 48.3389 163.1 47.4772C163.148 46.6117 163.167 45.6748 163.167 44.6659V38.02C163.167 37.0063 163.148 36.0694 163.1 35.2077C163.055 34.3465 162.979 33.5339 162.872 32.7755C161.34 32.6642 160.309 32.5526 159.769 32.4493C159.229 32.3427 158.96 32.2088 158.96 32.0431C158.96 31.9587 159.02 31.8834 159.148 31.8204C159.269 31.7624 159.438 31.7316 159.654 31.7316C159.688 31.7316 159.85 31.7397 160.126 31.7587C161.852 31.8611 163.648 31.9135 165.516 31.9135C167.391 31.9135 169.178 31.8611 170.892 31.7587C171.168 31.7397 171.337 31.7316 171.383 31.7316C171.586 31.7316 171.748 31.7624 171.869 31.8204C171.997 31.8834 172.058 31.9587 172.058 32.0431C172.058 32.2088 171.788 32.3427 171.248 32.4493C170.709 32.5526 169.676 32.6642 168.145 32.7755C168.038 33.5258 167.964 34.3329 167.917 35.1948C167.87 36.0563 167.849 36.9977 167.849 38.02V44.6659C167.849 45.6835 167.87 46.6252 167.917 47.4907C167.964 48.3534 168.038 49.1601 168.145 49.9103Z" fill="white"/>
<path fill-rule="evenodd" clip-rule="evenodd" d="M8.42432 17.3681C70.7683 4.53202 130.543 4.76685 195.513 19.1688C196.663 23.0104 197.046 24.331 198.196 28.1728C136.403 13.5507 85.3798 9.79612 8.42432 17.3681Z" fill="#E23326"/>
<path d="M71.8018 62.6043C71.5006 62.6043 71.2078 62.5611 70.9233 62.4746C70.6473 62.3881 70.4005 62.2506 70.1829 62.062C69.9654 61.8655 69.7897 61.61 69.6558 61.2957C69.5303 60.9734 69.4676 60.5805 69.4676 60.1167C69.4676 59.6373 69.5387 59.2325 69.6809 58.9024C69.8232 58.5645 69.9989 58.2972 70.208 58.1007C70.4256 57.8963 70.664 57.751 70.9233 57.6645C71.1827 57.5702 71.4295 57.523 71.6638 57.523C72.0486 57.523 72.3833 57.6174 72.6677 57.806C72.9522 57.9946 73.1404 58.2264 73.2325 58.5016H74.0984C74.0147 58.2186 73.8808 57.9868 73.6968 57.806C73.5128 57.6174 73.2994 57.468 73.0568 57.358C72.8225 57.2401 72.5673 57.1615 72.2912 57.1222C72.0235 57.075 71.7642 57.0515 71.5132 57.0515C70.9861 57.0515 70.5218 57.134 70.1202 57.299C69.7186 57.4563 69.3798 57.6723 69.1037 57.9475C68.8276 58.2226 68.6184 58.5448 68.4762 58.9142C68.3424 59.2836 68.2754 59.6766 68.2754 60.0931C68.2754 60.5333 68.3507 60.9459 68.5013 61.331C68.6519 61.7083 68.8652 62.0384 69.1413 62.3213C69.4257 62.5965 69.7646 62.8165 70.1578 62.9816C70.5511 63.1388 70.9944 63.2174 71.4881 63.2174C72.0403 63.2174 72.5214 63.1309 72.9313 62.958C73.3496 62.7851 73.701 62.5965 73.9854 62.3921L73.6215 61.9441C73.3287 62.172 73.0359 62.341 72.743 62.451C72.4586 62.5532 72.1449 62.6043 71.8018 62.6043Z" fill="white"/>
<path d="M78.239 63.0759H79.3058V57.6527H81.8157V57.1812H75.7291V57.6527H78.239V63.0759Z" fill="white"/>
<path d="M85.1462 62.3803V57.1812H84.0795V63.0759H85.3344L88.5346 57.9121V63.0759H89.6013V57.1812H88.3463L85.1462 62.3803Z" fill="white"/>
<path d="M96.2102 57.1812H95.4572L93.5497 61.6258C93.5075 61.7123 93.4618 61.8144 93.4116 61.9323C93.3614 62.0424 93.3023 62.1485 93.2359 62.2506C93.1687 62.3528 93.0889 62.4393 92.9975 62.51C92.9132 62.5729 92.8218 62.6043 92.7214 62.6043C92.604 62.6043 92.4829 62.5729 92.3574 62.51C92.232 62.4471 92.1316 62.3843 92.0563 62.3214L91.8555 62.9462C92.0473 63.1191 92.3198 63.2056 92.6712 63.2056C92.8299 63.2056 92.9724 63.182 93.0979 63.1348C93.2234 63.0955 93.3399 63.0209 93.4493 62.9108C93.5577 62.7929 93.6626 62.6436 93.763 62.4628C93.8715 62.2742 93.9844 62.0384 94.1018 61.7555L95.545 58.3483H95.6203L97.6283 63.0759H98.7577L96.2102 57.1812Z" fill="white"/>
<path d="M101.015 57.1812V63.0759H104.315C104.541 63.0759 104.763 63.0405 104.981 62.9698C105.206 62.899 105.403 62.7969 105.57 62.6633C105.737 62.5218 105.872 62.3567 105.972 62.1681C106.08 61.9716 106.135 61.7515 106.135 61.5079C106.135 61.107 106.038 60.7966 105.846 60.5765C105.662 60.3565 105.436 60.1953 105.169 60.0932C104.901 59.9831 104.62 59.9163 104.328 59.8927C104.035 59.8691 103.788 59.8574 103.588 59.8574H102.082V57.1812H101.015ZM102.082 62.6043V60.2582H103.525C103.6 60.2582 103.717 60.266 103.876 60.2818C104.035 60.2975 104.194 60.3486 104.353 60.435C104.52 60.5136 104.667 60.6394 104.792 60.8123C104.918 60.9774 104.981 61.2132 104.981 61.5197C104.981 61.8891 104.855 62.1641 104.604 62.3449C104.361 62.5178 104.077 62.6043 103.751 62.6043H102.082Z" fill="white"/>
<path d="M109.838 60.2582H113.013V63.0759H114.08V57.1812H113.013V59.8574H109.838V57.1812H108.771V63.0759H109.838V60.2582Z" fill="white"/>
<path d="M119.401 57.0515C120.011 57.0515 120.485 57.134 120.819 57.299C121.153 57.4563 121.396 57.6645 121.547 57.9239C121.706 58.1832 121.798 58.4819 121.823 58.8199C121.848 59.1578 121.861 59.5037 121.861 59.8573V63.0759H120.844V62.4982C120.601 62.7182 120.292 62.8951 119.915 63.0287C119.539 63.1544 119.162 63.2174 118.786 63.2174C118.427 63.2174 118.108 63.1584 117.832 63.0405C117.556 62.9226 117.326 62.7693 117.142 62.5807C116.958 62.3921 116.82 62.1799 116.728 61.9441C116.636 61.7083 116.59 61.4685 116.59 61.2249C116.59 60.9734 116.64 60.7219 116.74 60.4704C116.841 60.2189 116.991 59.9949 117.192 59.7984C117.393 59.594 117.64 59.429 117.933 59.3032C118.226 59.1775 118.56 59.1146 118.937 59.1146C119.313 59.1146 119.669 59.1854 120.003 59.3268C120.347 59.4605 120.626 59.653 120.844 59.9045V59.3976C120.844 58.7531 120.739 58.2736 120.53 57.9592C120.33 57.6449 119.958 57.4877 119.413 57.4877C119.18 57.4877 118.974 57.5152 118.799 57.5702C118.623 57.6252 118.464 57.7038 118.322 57.806C118.188 57.9003 118.063 58.0221 117.945 58.1715C117.828 58.3129 117.711 58.474 117.594 58.6548L116.941 58.0418C117.059 57.9239 117.18 57.806 117.305 57.6881C117.439 57.5702 117.598 57.4641 117.782 57.3698C117.975 57.2755 118.201 57.2008 118.46 57.1458C118.719 57.0829 119.033 57.0515 119.401 57.0515ZM120.844 60.7416C120.802 60.6472 120.739 60.5372 120.656 60.4115C120.581 60.2857 120.48 60.1639 120.355 60.046C120.229 59.9281 120.079 59.8298 119.903 59.7512C119.727 59.6648 119.518 59.6216 119.275 59.6216C119.033 59.6216 118.811 59.6687 118.61 59.763C118.41 59.8495 118.238 59.9674 118.096 60.1167C117.962 60.2582 117.857 60.4272 117.782 60.6237C117.707 60.8201 117.669 61.0245 117.669 61.2367C117.669 61.4883 117.715 61.7083 117.807 61.8969C117.908 62.0777 118.033 62.2349 118.184 62.3685C118.334 62.4942 118.502 62.5885 118.686 62.6515C118.869 62.7144 119.045 62.7458 119.213 62.7458C119.371 62.7458 119.531 62.7182 119.69 62.6632C119.857 62.6083 120.011 62.5336 120.154 62.4392C120.305 62.3371 120.438 62.2192 120.555 62.0856C120.673 61.9519 120.769 61.8066 120.844 61.6494V60.7416Z" fill="white"/>
<path d="M129.604 57.1812H127.094C126.918 57.1812 126.692 57.1969 126.416 57.2283C126.149 57.2519 125.885 57.3187 125.625 57.4287C125.366 57.5309 125.145 57.6881 124.96 57.9003C124.777 58.1125 124.684 58.4073 124.684 58.7845C124.684 58.9889 124.726 59.1814 124.81 59.3622C124.902 59.5351 125.028 59.6883 125.186 59.822C125.346 59.9556 125.534 60.0617 125.751 60.1403C125.969 60.2189 126.203 60.2582 126.454 60.2582H126.742V60.3054C126.609 60.3525 126.496 60.4115 126.404 60.4822C126.312 60.5529 126.228 60.6355 126.153 60.7298C126.077 60.8163 126.002 60.9145 125.927 61.0245C125.86 61.1346 125.785 61.2525 125.701 61.3782C125.425 61.8026 125.186 62.1131 124.985 62.3096C124.785 62.506 124.555 62.6043 124.295 62.6043H123.994V63.0759C124.22 63.1702 124.471 63.2174 124.747 63.2174C125.057 63.2174 125.324 63.1427 125.55 62.9934C125.785 62.8361 125.998 62.6043 126.19 62.2978L127.458 60.2582H128.537V63.0759H129.604V57.1812ZM128.537 57.6527V59.8574H127.508C127.257 59.8574 127.027 59.8416 126.818 59.8102C126.617 59.7709 126.441 59.7119 126.291 59.6334C126.149 59.5469 126.036 59.4329 125.952 59.2915C125.868 59.15 125.826 58.9732 125.826 58.7609C125.826 58.4858 125.889 58.2736 126.014 58.1243C126.14 57.975 126.283 57.8649 126.441 57.7942C126.601 57.7235 126.755 57.6841 126.906 57.6763C127.065 57.6606 127.174 57.6527 127.232 57.6527H128.537Z" fill="white"/>
<path d="M144.133 60.1403C144.133 60.549 144.057 60.942 143.907 61.3192C143.756 61.6887 143.539 62.0148 143.254 62.2978C142.978 62.5807 142.639 62.8047 142.238 62.9698C141.845 63.1348 141.401 63.2174 140.907 63.2174C140.405 63.2174 139.95 63.1348 139.539 62.9698C139.138 62.7969 138.795 62.5689 138.51 62.286C138.234 62.003 138.017 61.6769 137.858 61.3075C137.707 60.9302 137.632 60.5411 137.632 60.1403C137.632 59.7316 137.707 59.3426 137.858 58.9731C138.017 58.5959 138.234 58.2658 138.51 57.9828C138.795 57.6999 139.138 57.4759 139.539 57.3108C139.95 57.1379 140.405 57.0515 140.907 57.0515C141.401 57.0515 141.845 57.1379 142.238 57.3108C142.639 57.4759 142.978 57.6999 143.254 57.9828C143.539 58.2658 143.756 58.5959 143.907 58.9731C144.057 59.3426 144.133 59.7316 144.133 60.1403ZM142.94 60.1403C142.94 59.5902 142.878 59.146 142.752 58.8081C142.627 58.4622 142.463 58.195 142.263 58.0064C142.062 57.8178 141.84 57.692 141.597 57.6291C141.355 57.5584 141.121 57.523 140.895 57.523C140.669 57.523 140.435 57.5584 140.192 57.6291C139.95 57.692 139.724 57.8178 139.514 58.0064C139.313 58.195 139.147 58.4622 139.012 58.8081C138.887 59.146 138.824 59.5902 138.824 60.1403C138.824 60.6826 138.887 61.1267 139.012 61.4725C139.147 61.8104 139.313 62.0738 139.514 62.2624C139.724 62.451 139.95 62.5807 140.192 62.6515C140.435 62.7144 140.669 62.7458 140.895 62.7458C141.121 62.7458 141.355 62.7144 141.597 62.6515C141.84 62.5807 142.062 62.451 142.263 62.2624C142.463 62.0738 142.627 61.8104 142.752 61.4725C142.878 61.1267 142.94 60.6826 142.94 60.1403Z" fill="white"/>
<path d="M147.837 57.6527H150.761V63.0759H151.828V57.1812H146.771V63.0759H147.837V57.6527Z" fill="white"/>
<path d="M156.602 63.0759H157.669V57.6527H160.179V57.1812H154.092V57.6527H156.602V63.0759Z" fill="white"/>
<path d="M163.51 62.3803V57.1812H162.443V63.0759H163.698L166.898 57.9121V63.0759H167.965V57.1812H166.71L163.51 62.3803Z" fill="white"/>
<path d="M172.038 60.2228V57.1812H170.971V63.0759H172.038V61.0009L172.728 60.3172L174.285 62.2388C174.385 62.3567 174.49 62.4746 174.598 62.5925C174.708 62.7104 174.824 62.8165 174.95 62.9108C175.075 63.0051 175.21 63.0798 175.351 63.1348C175.502 63.1898 175.661 63.2174 175.828 63.2174C175.979 63.2174 176.126 63.2016 176.267 63.1702C176.41 63.1388 176.535 63.1073 176.644 63.0759V62.6043H176.292C176.192 62.6043 176.088 62.5768 175.979 62.5218C175.87 62.4668 175.757 62.3961 175.64 62.3096C175.531 62.2153 175.423 62.117 175.314 62.0148C175.213 61.9048 175.122 61.7987 175.037 61.6965L173.394 59.6805L175.941 57.1812H175.15L172.038 60.2228Z" fill="white"/>
<path d="M181.209 57.0515C181.82 57.0515 182.293 57.134 182.627 57.299C182.962 57.4563 183.205 57.6645 183.355 57.9239C183.514 58.1832 183.606 58.4819 183.631 58.8199C183.656 59.1578 183.669 59.5037 183.669 59.8573V63.0759H182.652V62.4982C182.409 62.7182 182.1 62.8951 181.724 63.0287C181.347 63.1544 180.971 63.2174 180.594 63.2174C180.235 63.2174 179.917 63.1584 179.64 63.0405C179.364 62.9226 179.134 62.7693 178.95 62.5807C178.766 62.3921 178.628 62.1799 178.536 61.9441C178.444 61.7083 178.398 61.4685 178.398 61.2249C178.398 60.9734 178.448 60.7219 178.549 60.4704C178.649 60.2189 178.8 59.9949 179 59.7984C179.201 59.594 179.448 59.429 179.741 59.3032C180.034 59.1775 180.368 59.1146 180.745 59.1146C181.121 59.1146 181.477 59.1854 181.812 59.3268C182.155 59.4605 182.435 59.653 182.652 59.9045V59.3976C182.652 58.7531 182.547 58.2736 182.339 57.9592C182.138 57.6449 181.766 57.4877 181.222 57.4877C180.988 57.4877 180.782 57.5152 180.607 57.5702C180.431 57.6252 180.272 57.7038 180.13 57.806C179.996 57.9003 179.871 58.0221 179.753 58.1715C179.636 58.3129 179.519 58.474 179.402 58.6548L178.749 58.0418C178.867 57.9239 178.988 57.806 179.113 57.6881C179.247 57.5702 179.407 57.4641 179.59 57.3698C179.783 57.2755 180.009 57.2008 180.268 57.1458C180.527 57.0829 180.841 57.0515 181.209 57.0515ZM182.652 60.7416C182.61 60.6472 182.547 60.5372 182.464 60.4115C182.389 60.2857 182.288 60.1639 182.163 60.046C182.037 59.9281 181.887 59.8298 181.711 59.7512C181.535 59.6648 181.327 59.6216 181.084 59.6216C180.841 59.6216 180.619 59.6687 180.419 59.763C180.218 59.8495 180.047 59.9674 179.904 60.1167C179.77 60.2582 179.666 60.4272 179.59 60.6237C179.515 60.8201 179.477 61.0245 179.477 61.2367C179.477 61.4883 179.523 61.7083 179.615 61.8969C179.716 62.0777 179.841 62.2349 179.992 62.3685C180.142 62.4942 180.31 62.5885 180.494 62.6515C180.678 62.7144 180.853 62.7458 181.021 62.7458C181.18 62.7458 181.339 62.7182 181.498 62.6632C181.665 62.6083 181.82 62.5336 181.962 62.4392C182.113 62.3371 182.246 62.2192 182.364 62.0856C182.481 61.9519 182.577 61.8066 182.652 61.6494V60.7416Z" fill="white"/>
</g>
<defs>
<clipPath id="clip0_173_1548">
<rect width="199" height="64" fill="white"/>
</clipPath>
</defs>
</svg>
