<svg width="59" height="55" viewBox="0 0 59 55" fill="none" xmlns="http://www.w3.org/2000/svg">
<g id="SVGRepo_iconCarrier">
<path id="Vector" d="M36.3335 45.6666H5.66683C2.7335 45.6666 0.333496 43.2666 0.333496 40.3333V5.66665C0.333496 2.73331 2.7335 0.333313 5.66683 0.333313H48.3335C51.2668 0.333313 53.6668 2.73331 53.6668 5.66665V28.3333C53.6668 37.9333 45.9335 45.6666 36.3335 45.6666Z" fill="#8CBCD6"/>
<path id="Vector_2" d="M41.667 16.3333C43.8761 16.3333 45.667 14.5425 45.667 12.3333C45.667 10.1242 43.8761 8.33331 41.667 8.33331C39.4579 8.33331 37.667 10.1242 37.667 12.3333C37.667 14.5425 39.4579 16.3333 41.667 16.3333Z" fill="#B3DDF5"/>
<path id="Vector_3" d="M21.6667 12.3333L7 33.6666H36.3333L21.6667 12.3333Z" fill="#9AC9E3"/>
<path id="Vector_4" d="M36.3337 20.3333L25.667 33.6666H47.0003L36.3337 20.3333Z" fill="#B3DDF5"/>
<path id="Vector_5" d="M58.6 29.8L54.8667 26.0666C54.3333 25.5333 53.4 25.5333 52.7333 26.0666L51 27.8L56.8667 33.6666L58.6 31.9333C59.1333 31.4 59.1333 30.4666 58.6 29.8Z" fill="#E57373"/>
<path id="Vector_6" d="M48.0259 30.8203L31.6235 47.2227L37.4681 53.0672L53.8705 36.6648L48.0259 30.8203Z" fill="#FF9800"/>
<path id="Vector_7" d="M53.944 36.6399L56.8667 33.7172L51.0213 27.8717L48.0986 30.7945L53.944 36.6399Z" fill="#B0BEC5"/>
<path id="Vector_8" d="M31.667 47.2667L29.667 55L37.4003 53L31.667 47.2667Z" fill="#FFC107"/>
<path id="Vector_9" d="M30.6003 51L29.667 55L33.667 54.0667L30.6003 51Z" fill="#37474F"/>
</g>
</svg>
